solid Gel Comb rev 4 cut to 1 mm
   facet normal 0.000000e+000 0.000000e+000 1.000000e+000
      outer loop
         vertex 2.504893e+000 7.500000e-001 -1.493128e+000
         vertex 8.450489e+001 7.500000e-001 -1.493128e+000
         vertex 8.450489e+001 1.250000e+000 -1.493128e+000
      endloop
   endfacet
   facet normal 0.000000e+000 0.000000e+000 1.000000e+000
      outer loop
         vertex 2.504893e+000 7.500000e-001 -1.493128e+000
         vertex 8.450489e+001 1.250000e+000 -1.493128e+000
         vertex 2.504893e+000 1.250000e+000 -1.493128e+000
      endloop
   endfacet
   facet normal 0.000000e+000 0.000000e+000 -1.000000e+000
      outer loop
         vertex 2.504893e+000 1.250000e+000 -1.149313e+001
         vertex 8.450489e+001 1.250000e+000 -1.149313e+001
         vertex 8.450489e+001 -2.500000e-001 -1.149313e+001
      endloop
   endfacet
   facet normal 0.000000e+000 0.000000e+000 -1.000000e+000
      outer loop
         vertex 2.504893e+000 1.250000e+000 -1.149313e+001
         vertex 8.450489e+001 -2.500000e-001 -1.149313e+001
         vertex 8.444622e+001 -2.500000e-001 -1.149313e+001
      endloop
   endfacet
   facet normal 0.000000e+000 0.000000e+000 -1.000000e+000
      outer loop
         vertex 2.504893e+000 1.250000e+000 -1.149313e+001
         vertex 8.444622e+001 -2.500000e-001 -1.149313e+001
         vertex 2.504893e+000 -2.500000e-001 -1.149313e+001
      endloop
   endfacet
   facet normal -1.000000e+000 1.224647e-016 0.000000e+000
      outer loop
         vertex 2.504893e+000 1.250000e+000 -1.493128e+000
         vertex 2.504893e+000 1.250000e+000 -1.149313e+001
         vertex 2.504893e+000 -2.500000e-001 -1.149313e+001
      endloop
   endfacet
   facet normal -1.000000e+000 1.224647e-016 0.000000e+000
      outer loop
         vertex 2.504893e+000 1.250000e+000 -1.493128e+000
         vertex 2.504893e+000 -2.500000e-001 -1.149313e+001
         vertex 2.504893e+000 -2.500000e-001 -1.493128e+000
      endloop
   endfacet
   facet normal -1.000000e+000 1.224647e-016 0.000000e+000
      outer loop
         vertex 2.504893e+000 1.250000e+000 -1.493128e+000
         vertex 2.504893e+000 7.500000e-001 -1.493128e+000
         vertex 2.504893e+000 -2.500000e-001 -1.493128e+000
      endloop
   endfacet
   facet normal 1.000000e+000 -6.125742e-017 0.000000e+000
      outer loop
         vertex 8.450489e+001 -2.500000e-001 -1.493128e+000
         vertex 8.450489e+001 -2.500000e-001 -1.149313e+001
         vertex 8.450489e+001 1.250000e+000 -1.149313e+001
      endloop
   endfacet
   facet normal 1.000000e+000 -6.125742e-017 0.000000e+000
      outer loop
         vertex 8.450489e+001 -2.500000e-001 -1.493128e+000
         vertex 8.450489e+001 1.250000e+000 -1.149313e+001
         vertex 8.450489e+001 1.250000e+000 -1.493128e+000
      endloop
   endfacet
   facet normal 1.000000e+000 -6.125742e-017 0.000000e+000
      outer loop
         vertex 8.450489e+001 -2.500000e-001 -1.493128e+000
         vertex 8.450489e+001 7.500000e-001 -1.493128e+000
         vertex 8.450489e+001 1.250000e+000 -1.493128e+000
      endloop
   endfacet
   facet normal 6.123234e-017 1.000000e+000 0.000000e+000
      outer loop
         vertex 8.450489e+001 1.250000e+000 -1.493128e+000
         vertex 8.450489e+001 1.250000e+000 -1.149313e+001
         vertex 2.504893e+000 1.250000e+000 -1.149313e+001
      endloop
   endfacet
   facet normal 6.123234e-017 1.000000e+000 0.000000e+000
      outer loop
         vertex 8.450489e+001 1.250000e+000 -1.493128e+000
         vertex 2.504893e+000 1.250000e+000 -1.149313e+001
         vertex 2.504893e+000 1.250000e+000 -1.493128e+000
      endloop
   endfacet
   facet normal 0.000000e+000 0.000000e+000 1.000000e+000
      outer loop
         vertex 3.475000e+000 -2.500000e-001 1.000000e+001
         vertex 6.775000e+000 -2.500000e-001 1.000000e+001
         vertex 6.775000e+000 7.500000e-001 1.000000e+001
      endloop
   endfacet
   facet normal 0.000000e+000 0.000000e+000 1.000000e+000
      outer loop
         vertex 3.475000e+000 -2.500000e-001 1.000000e+001
         vertex 6.775000e+000 7.500000e-001 1.000000e+001
         vertex 3.475000e+000 7.500000e-001 1.000000e+001
      endloop
   endfacet
   facet normal -1.000000e+000 1.224647e-016 0.000000e+000
      outer loop
         vertex 3.475000e+000 7.500000e-001 1.000000e+001
         vertex 3.475000e+000 7.500000e-001 -1.668581e-016
         vertex 3.475000e+000 -2.500000e-001 -1.821662e-016
      endloop
   endfacet
   facet normal -1.000000e+000 1.224647e-016 0.000000e+000
      outer loop
         vertex 3.475000e+000 7.500000e-001 1.000000e+001
         vertex 3.475000e+000 -2.500000e-001 -1.821662e-016
         vertex 3.475000e+000 -2.500000e-001 1.000000e+001
      endloop
   endfacet
   facet normal 1.000000e+000 -6.125742e-017 0.000000e+000
      outer loop
         vertex 6.775000e+000 -2.500000e-001 1.000000e+001
         vertex 6.775000e+000 -2.500000e-001 -4.301572e-016
         vertex 6.775000e+000 7.500000e-001 4.607922e-016
      endloop
   endfacet
   facet normal 1.000000e+000 -6.125742e-017 0.000000e+000
      outer loop
         vertex 6.775000e+000 -2.500000e-001 1.000000e+001
         vertex 6.775000e+000 7.500000e-001 4.607922e-016
         vertex 6.775000e+000 7.500000e-001 1.000000e+001
      endloop
   endfacet
   facet normal 6.123234e-017 1.000000e+000 0.000000e+000
      outer loop
         vertex 6.775000e+000 7.500000e-001 1.000000e+001
         vertex 6.775000e+000 7.500000e-001 4.607922e-016
         vertex 3.475000e+000 7.500000e-001 0.000000e+000
      endloop
   endfacet
   facet normal 6.123234e-017 1.000000e+000 0.000000e+000
      outer loop
         vertex 6.775000e+000 7.500000e-001 1.000000e+001
         vertex 3.475000e+000 7.500000e-001 0.000000e+000
         vertex 3.475000e+000 7.500000e-001 1.000000e+001
      endloop
   endfacet
   facet normal 0.000000e+000 0.000000e+000 1.000000e+000
      outer loop
         vertex 8.600000e+000 -2.500000e-001 1.000000e+001
         vertex 1.190000e+001 -2.500000e-001 1.000000e+001
         vertex 1.190000e+001 7.500000e-001 1.000000e+001
      endloop
   endfacet
   facet normal 0.000000e+000 0.000000e+000 1.000000e+000
      outer loop
         vertex 8.600000e+000 -2.500000e-001 1.000000e+001
         vertex 1.190000e+001 7.500000e-001 1.000000e+001
         vertex 8.600000e+000 7.500000e-001 1.000000e+001
      endloop
   endfacet
   facet normal -1.000000e+000 1.224647e-016 0.000000e+000
      outer loop
         vertex 8.600000e+000 7.500000e-001 1.000000e+001
         vertex 8.600000e+000 7.500000e-001 -4.806739e-016
         vertex 8.600000e+000 -2.500000e-001 -4.959820e-016
      endloop
   endfacet
   facet normal -1.000000e+000 1.224647e-016 0.000000e+000
      outer loop
         vertex 8.600000e+000 7.500000e-001 1.000000e+001
         vertex 8.600000e+000 -2.500000e-001 -4.959820e-016
         vertex 8.600000e+000 -2.500000e-001 1.000000e+001
      endloop
   endfacet
   facet normal 1.000000e+000 -6.125742e-017 0.000000e+000
      outer loop
         vertex 1.190000e+001 -2.500000e-001 1.000000e+001
         vertex 1.190000e+001 -2.500000e-001 2.808741e-015
         vertex 1.190000e+001 7.500000e-001 7.746079e-016
      endloop
   endfacet
   facet normal 1.000000e+000 -6.125742e-017 0.000000e+000
      outer loop
         vertex 1.190000e+001 -2.500000e-001 1.000000e+001
         vertex 1.190000e+001 7.500000e-001 7.746079e-016
         vertex 1.190000e+001 7.500000e-001 1.000000e+001
      endloop
   endfacet
   facet normal 6.123234e-017 1.000000e+000 0.000000e+000
      outer loop
         vertex 1.190000e+001 7.500000e-001 1.000000e+001
         vertex 1.190000e+001 7.500000e-001 7.746079e-016
         vertex 8.600000e+000 7.500000e-001 -1.232595e-031
      endloop
   endfacet
   facet normal 6.123234e-017 1.000000e+000 0.000000e+000
      outer loop
         vertex 1.190000e+001 7.500000e-001 1.000000e+001
         vertex 8.600000e+000 7.500000e-001 -1.232595e-031
         vertex 8.600000e+000 7.500000e-001 1.000000e+001
      endloop
   endfacet
   facet normal 0.000000e+000 0.000000e+000 1.000000e+000
      outer loop
         vertex 1.372500e+001 -2.500000e-001 1.000000e+001
         vertex 1.702500e+001 -2.500000e-001 1.000000e+001
         vertex 1.702500e+001 7.500000e-001 1.000000e+001
      endloop
   endfacet
   facet normal 0.000000e+000 0.000000e+000 1.000000e+000
      outer loop
         vertex 1.372500e+001 -2.500000e-001 1.000000e+001
         vertex 1.702500e+001 7.500000e-001 1.000000e+001
         vertex 1.372500e+001 7.500000e-001 1.000000e+001
      endloop
   endfacet
   facet normal -1.000000e+000 1.224647e-016 0.000000e+000
      outer loop
         vertex 1.372500e+001 7.500000e-001 1.000000e+001
         vertex 1.372500e+001 7.500000e-001 -7.944896e-016
         vertex 1.372500e+001 -2.500000e-001 -8.097977e-016
      endloop
   endfacet
   facet normal -1.000000e+000 1.224647e-016 0.000000e+000
      outer loop
         vertex 1.372500e+001 7.500000e-001 1.000000e+001
         vertex 1.372500e+001 -2.500000e-001 -8.097977e-016
         vertex 1.372500e+001 -2.500000e-001 1.000000e+001
      endloop
   endfacet
   facet normal 1.000000e+000 -6.125742e-017 0.000000e+000
      outer loop
         vertex 1.702500e+001 -2.500000e-001 1.000000e+001
         vertex 1.702500e+001 -2.500000e-001 2.494925e-015
         vertex 1.702500e+001 7.500000e-001 -6.879332e-016
      endloop
   endfacet
   facet normal 1.000000e+000 -6.125742e-017 0.000000e+000
      outer loop
         vertex 1.702500e+001 -2.500000e-001 1.000000e+001
         vertex 1.702500e+001 7.500000e-001 -6.879332e-016
         vertex 1.702500e+001 7.500000e-001 1.000000e+001
      endloop
   endfacet
   facet normal 6.123234e-017 1.000000e+000 0.000000e+000
      outer loop
         vertex 1.702500e+001 7.500000e-001 1.000000e+001
         vertex 1.702500e+001 7.500000e-001 -6.879332e-016
         vertex 1.372500e+001 7.500000e-001 -1.232595e-031
      endloop
   endfacet
   facet normal 6.123234e-017 1.000000e+000 0.000000e+000
      outer loop
         vertex 1.702500e+001 7.500000e-001 1.000000e+001
         vertex 1.372500e+001 7.500000e-001 -1.232595e-031
         vertex 1.372500e+001 7.500000e-001 1.000000e+001
      endloop
   endfacet
   facet normal 0.000000e+000 0.000000e+000 1.000000e+000
      outer loop
         vertex 1.885000e+001 -2.500000e-001 1.000000e+001
         vertex 2.215000e+001 -2.500000e-001 1.000000e+001
         vertex 2.215000e+001 7.500000e-001 1.000000e+001
      endloop
   endfacet
   facet normal 0.000000e+000 0.000000e+000 1.000000e+000
      outer loop
         vertex 1.885000e+001 -2.500000e-001 1.000000e+001
         vertex 2.215000e+001 7.500000e-001 1.000000e+001
         vertex 1.885000e+001 7.500000e-001 1.000000e+001
      endloop
   endfacet
   facet normal -1.000000e+000 1.224647e-016 0.000000e+000
      outer loop
         vertex 1.885000e+001 7.500000e-001 1.000000e+001
         vertex 1.885000e+001 7.500000e-001 6.680515e-016
         vertex 1.885000e+001 -2.500000e-001 6.527434e-016
      endloop
   endfacet
   facet normal -1.000000e+000 1.224647e-016 0.000000e+000
      outer loop
         vertex 1.885000e+001 7.500000e-001 1.000000e+001
         vertex 1.885000e+001 -2.500000e-001 6.527434e-016
         vertex 1.885000e+001 -2.500000e-001 1.000000e+001
      endloop
   endfacet
   facet normal 1.000000e+000 -6.125742e-017 0.000000e+000
      outer loop
         vertex 2.215000e+001 -2.500000e-001 1.000000e+001
         vertex 2.215000e+001 -2.500000e-001 2.181109e-015
         vertex 2.215000e+001 7.500000e-001 -3.741174e-016
      endloop
   endfacet
   facet normal 1.000000e+000 -6.125742e-017 0.000000e+000
      outer loop
         vertex 2.215000e+001 -2.500000e-001 1.000000e+001
         vertex 2.215000e+001 7.500000e-001 -3.741174e-016
         vertex 2.215000e+001 7.500000e-001 1.000000e+001
      endloop
   endfacet
   facet normal 6.123234e-017 1.000000e+000 0.000000e+000
      outer loop
         vertex 2.215000e+001 7.500000e-001 1.000000e+001
         vertex 2.215000e+001 7.500000e-001 -3.741174e-016
         vertex 1.885000e+001 7.500000e-001 -1.232595e-031
      endloop
   endfacet
   facet normal 6.123234e-017 1.000000e+000 0.000000e+000
      outer loop
         vertex 2.215000e+001 7.500000e-001 1.000000e+001
         vertex 1.885000e+001 7.500000e-001 -1.232595e-031
         vertex 1.885000e+001 7.500000e-001 1.000000e+001
      endloop
   endfacet
   facet normal 0.000000e+000 0.000000e+000 1.000000e+000
      outer loop
         vertex 2.397500e+001 -2.500000e-001 1.000000e+001
         vertex 2.727500e+001 -2.500000e-001 1.000000e+001
         vertex 2.727500e+001 7.500000e-001 1.000000e+001
      endloop
   endfacet
   facet normal 0.000000e+000 0.000000e+000 1.000000e+000
      outer loop
         vertex 2.397500e+001 -2.500000e-001 1.000000e+001
         vertex 2.727500e+001 7.500000e-001 1.000000e+001
         vertex 2.397500e+001 7.500000e-001 1.000000e+001
      endloop
   endfacet
   facet normal -1.000000e+000 1.224647e-016 0.000000e+000
      outer loop
         vertex 2.397500e+001 7.500000e-001 1.000000e+001
         vertex 2.397500e+001 7.500000e-001 3.542357e-016
         vertex 2.397500e+001 -2.500000e-001 3.389277e-016
      endloop
   endfacet
   facet normal -1.000000e+000 1.224647e-016 0.000000e+000
      outer loop
         vertex 2.397500e+001 7.500000e-001 1.000000e+001
         vertex 2.397500e+001 -2.500000e-001 3.389277e-016
         vertex 2.397500e+001 -2.500000e-001 1.000000e+001
      endloop
   endfacet
   facet normal 1.000000e+000 -6.125742e-017 0.000000e+000
      outer loop
         vertex 2.727500e+001 -2.500000e-001 1.000000e+001
         vertex 2.727500e+001 -2.500000e-001 1.867294e-015
         vertex 2.727500e+001 7.500000e-001 -6.030170e-017
      endloop
   endfacet
   facet normal 1.000000e+000 -6.125742e-017 0.000000e+000
      outer loop
         vertex 2.727500e+001 -2.500000e-001 1.000000e+001
         vertex 2.727500e+001 7.500000e-001 -6.030170e-017
         vertex 2.727500e+001 7.500000e-001 1.000000e+001
      endloop
   endfacet
   facet normal 6.123234e-017 1.000000e+000 0.000000e+000
      outer loop
         vertex 2.727500e+001 7.500000e-001 1.000000e+001
         vertex 2.727500e+001 7.500000e-001 -6.030170e-017
         vertex 2.397500e+001 7.500000e-001 -1.232595e-031
      endloop
   endfacet
   facet normal 6.123234e-017 1.000000e+000 0.000000e+000
      outer loop
         vertex 2.727500e+001 7.500000e-001 1.000000e+001
         vertex 2.397500e+001 7.500000e-001 -1.232595e-031
         vertex 2.397500e+001 7.500000e-001 1.000000e+001
      endloop
   endfacet
   facet normal 0.000000e+000 0.000000e+000 1.000000e+000
      outer loop
         vertex 2.910000e+001 -2.500000e-001 1.000000e+001
         vertex 3.240000e+001 -2.500000e-001 1.000000e+001
         vertex 3.240000e+001 7.500000e-001 1.000000e+001
      endloop
   endfacet
   facet normal 0.000000e+000 0.000000e+000 1.000000e+000
      outer loop
         vertex 2.910000e+001 -2.500000e-001 1.000000e+001
         vertex 3.240000e+001 7.500000e-001 1.000000e+001
         vertex 2.910000e+001 7.500000e-001 1.000000e+001
      endloop
   endfacet
   facet normal -1.000000e+000 1.224647e-016 0.000000e+000
      outer loop
         vertex 2.910000e+001 7.500000e-001 1.000000e+001
         vertex 2.910000e+001 7.500000e-001 4.042000e-017
         vertex 2.910000e+001 -2.500000e-001 2.511192e-017
      endloop
   endfacet
   facet normal -1.000000e+000 1.224647e-016 0.000000e+000
      outer loop
         vertex 2.910000e+001 7.500000e-001 1.000000e+001
         vertex 2.910000e+001 -2.500000e-001 2.511192e-017
         vertex 2.910000e+001 -2.500000e-001 1.000000e+001
      endloop
   endfacet
   facet normal 1.000000e+000 -6.125742e-017 0.000000e+000
      outer loop
         vertex 3.240000e+001 -2.500000e-001 1.000000e+001
         vertex 3.240000e+001 -2.500000e-001 1.553478e-015
         vertex 3.240000e+001 7.500000e-001 2.535140e-016
      endloop
   endfacet
   facet normal 1.000000e+000 -6.125742e-017 0.000000e+000
      outer loop
         vertex 3.240000e+001 -2.500000e-001 1.000000e+001
         vertex 3.240000e+001 7.500000e-001 2.535140e-016
         vertex 3.240000e+001 7.500000e-001 1.000000e+001
      endloop
   endfacet
   facet normal 6.123234e-017 1.000000e+000 0.000000e+000
      outer loop
         vertex 3.240000e+001 7.500000e-001 1.000000e+001
         vertex 3.240000e+001 7.500000e-001 2.535140e-016
         vertex 2.910000e+001 7.500000e-001 -5.176900e-031
      endloop
   endfacet
   facet normal 6.123234e-017 1.000000e+000 0.000000e+000
      outer loop
         vertex 3.240000e+001 7.500000e-001 1.000000e+001
         vertex 2.910000e+001 7.500000e-001 -5.176900e-031
         vertex 2.910000e+001 7.500000e-001 1.000000e+001
      endloop
   endfacet
   facet normal 0.000000e+000 0.000000e+000 1.000000e+000
      outer loop
         vertex 3.422500e+001 -2.500000e-001 1.000000e+001
         vertex 3.752500e+001 -2.500000e-001 1.000000e+001
         vertex 3.752500e+001 7.500000e-001 1.000000e+001
      endloop
   endfacet
   facet normal 0.000000e+000 0.000000e+000 1.000000e+000
      outer loop
         vertex 3.422500e+001 -2.500000e-001 1.000000e+001
         vertex 3.752500e+001 7.500000e-001 1.000000e+001
         vertex 3.422500e+001 7.500000e-001 1.000000e+001
      endloop
   endfacet
   facet normal -1.000000e+000 1.224647e-016 0.000000e+000
      outer loop
         vertex 3.422500e+001 7.500000e-001 1.000000e+001
         vertex 3.422500e+001 7.500000e-001 -2.733957e-016
         vertex 3.422500e+001 -2.500000e-001 -2.887038e-016
      endloop
   endfacet
   facet normal -1.000000e+000 1.224647e-016 0.000000e+000
      outer loop
         vertex 3.422500e+001 7.500000e-001 1.000000e+001
         vertex 3.422500e+001 -2.500000e-001 -2.887038e-016
         vertex 3.422500e+001 -2.500000e-001 1.000000e+001
      endloop
   endfacet
   facet normal 1.000000e+000 -6.125742e-017 0.000000e+000
      outer loop
         vertex 3.752500e+001 -2.500000e-001 1.000000e+001
         vertex 3.752500e+001 -2.500000e-001 1.239662e-015
         vertex 3.752500e+001 7.500000e-001 5.673298e-016
      endloop
   endfacet
   facet normal 1.000000e+000 -6.125742e-017 0.000000e+000
      outer loop
         vertex 3.752500e+001 -2.500000e-001 1.000000e+001
         vertex 3.752500e+001 7.500000e-001 5.673298e-016
         vertex 3.752500e+001 7.500000e-001 1.000000e+001
      endloop
   endfacet
   facet normal 6.123234e-017 1.000000e+000 0.000000e+000
      outer loop
         vertex 3.752500e+001 7.500000e-001 1.000000e+001
         vertex 3.752500e+001 7.500000e-001 5.673298e-016
         vertex 3.422500e+001 7.500000e-001 -7.149052e-031
      endloop
   endfacet
   facet normal 6.123234e-017 1.000000e+000 0.000000e+000
      outer loop
         vertex 3.752500e+001 7.500000e-001 1.000000e+001
         vertex 3.422500e+001 7.500000e-001 -7.149052e-031
         vertex 3.422500e+001 7.500000e-001 1.000000e+001
      endloop
   endfacet
   facet normal 0.000000e+000 0.000000e+000 1.000000e+000
      outer loop
         vertex 3.935000e+001 -2.500000e-001 1.000000e+001
         vertex 4.265000e+001 -2.500000e-001 1.000000e+001
         vertex 4.265000e+001 7.500000e-001 1.000000e+001
      endloop
   endfacet
   facet normal 0.000000e+000 0.000000e+000 1.000000e+000
      outer loop
         vertex 3.935000e+001 -2.500000e-001 1.000000e+001
         vertex 4.265000e+001 7.500000e-001 1.000000e+001
         vertex 3.935000e+001 7.500000e-001 1.000000e+001
      endloop
   endfacet
   facet normal -1.000000e+000 1.224647e-016 0.000000e+000
      outer loop
         vertex 3.935000e+001 7.500000e-001 1.000000e+001
         vertex 3.935000e+001 7.500000e-001 -5.872115e-016
         vertex 3.935000e+001 -2.500000e-001 -6.025196e-016
      endloop
   endfacet
   facet normal -1.000000e+000 1.224647e-016 0.000000e+000
      outer loop
         vertex 3.935000e+001 7.500000e-001 1.000000e+001
         vertex 3.935000e+001 -2.500000e-001 -6.025196e-016
         vertex 3.935000e+001 -2.500000e-001 1.000000e+001
      endloop
   endfacet
   facet normal 1.000000e+000 -6.125742e-017 0.000000e+000
      outer loop
         vertex 4.265000e+001 -2.500000e-001 1.000000e+001
         vertex 4.265000e+001 -2.500000e-001 9.258463e-016
         vertex 4.265000e+001 7.500000e-001 8.811455e-016
      endloop
   endfacet
   facet normal 1.000000e+000 -6.125742e-017 0.000000e+000
      outer loop
         vertex 4.265000e+001 -2.500000e-001 1.000000e+001
         vertex 4.265000e+001 7.500000e-001 8.811455e-016
         vertex 4.265000e+001 7.500000e-001 1.000000e+001
      endloop
   endfacet
   facet normal 6.123234e-017 1.000000e+000 0.000000e+000
      outer loop
         vertex 4.265000e+001 7.500000e-001 1.000000e+001
         vertex 4.265000e+001 7.500000e-001 8.811455e-016
         vertex 3.935000e+001 7.500000e-001 -7.149052e-031
      endloop
   endfacet
   facet normal 6.123234e-017 1.000000e+000 0.000000e+000
      outer loop
         vertex 4.265000e+001 7.500000e-001 1.000000e+001
         vertex 3.935000e+001 7.500000e-001 -7.149052e-031
         vertex 3.935000e+001 7.500000e-001 1.000000e+001
      endloop
   endfacet
   facet normal 0.000000e+000 0.000000e+000 1.000000e+000
      outer loop
         vertex 4.447500e+001 -2.500000e-001 1.000000e+001
         vertex 4.777500e+001 -2.500000e-001 1.000000e+001
         vertex 4.777500e+001 7.500000e-001 1.000000e+001
      endloop
   endfacet
   facet normal 0.000000e+000 0.000000e+000 1.000000e+000
      outer loop
         vertex 4.447500e+001 -2.500000e-001 1.000000e+001
         vertex 4.777500e+001 7.500000e-001 1.000000e+001
         vertex 4.447500e+001 7.500000e-001 1.000000e+001
      endloop
   endfacet
   facet normal -1.000000e+000 1.224647e-016 0.000000e+000
      outer loop
         vertex 4.447500e+001 7.500000e-001 1.000000e+001
         vertex 4.447500e+001 7.500000e-001 8.753296e-016
         vertex 4.447500e+001 -2.500000e-001 -9.163353e-016
      endloop
   endfacet
   facet normal -1.000000e+000 1.224647e-016 0.000000e+000
      outer loop
         vertex 4.447500e+001 7.500000e-001 1.000000e+001
         vertex 4.447500e+001 -2.500000e-001 -9.163353e-016
         vertex 4.447500e+001 -2.500000e-001 1.000000e+001
      endloop
   endfacet
   facet normal 1.000000e+000 -6.125742e-017 0.000000e+000
      outer loop
         vertex 4.777500e+001 -2.500000e-001 1.000000e+001
         vertex 4.777500e+001 -2.500000e-001 6.120306e-016
         vertex 4.777500e+001 7.500000e-001 -5.813956e-016
      endloop
   endfacet
   facet normal 1.000000e+000 -6.125742e-017 0.000000e+000
      outer loop
         vertex 4.777500e+001 -2.500000e-001 1.000000e+001
         vertex 4.777500e+001 7.500000e-001 -5.813956e-016
         vertex 4.777500e+001 7.500000e-001 1.000000e+001
      endloop
   endfacet
   facet normal 6.123234e-017 1.000000e+000 0.000000e+000
      outer loop
         vertex 4.777500e+001 7.500000e-001 1.000000e+001
         vertex 4.777500e+001 7.500000e-001 -5.813956e-016
         vertex 4.447500e+001 7.500000e-001 -7.149052e-031
      endloop
   endfacet
   facet normal 6.123234e-017 1.000000e+000 0.000000e+000
      outer loop
         vertex 4.777500e+001 7.500000e-001 1.000000e+001
         vertex 4.447500e+001 7.500000e-001 -7.149052e-031
         vertex 4.447500e+001 7.500000e-001 1.000000e+001
      endloop
   endfacet
   facet normal 0.000000e+000 0.000000e+000 1.000000e+000
      outer loop
         vertex 4.960000e+001 -2.500000e-001 1.000000e+001
         vertex 5.290000e+001 -2.500000e-001 1.000000e+001
         vertex 5.290000e+001 7.500000e-001 1.000000e+001
      endloop
   endfacet
   facet normal 0.000000e+000 0.000000e+000 1.000000e+000
      outer loop
         vertex 4.960000e+001 -2.500000e-001 1.000000e+001
         vertex 5.290000e+001 7.500000e-001 1.000000e+001
         vertex 4.960000e+001 7.500000e-001 1.000000e+001
      endloop
   endfacet
   facet normal -1.000000e+000 1.224647e-016 0.000000e+000
      outer loop
         vertex 4.960000e+001 7.500000e-001 1.000000e+001
         vertex 4.960000e+001 7.500000e-001 5.615139e-016
         vertex 4.960000e+001 -2.500000e-001 5.462058e-016
      endloop
   endfacet
   facet normal -1.000000e+000 1.224647e-016 0.000000e+000
      outer loop
         vertex 4.960000e+001 7.500000e-001 1.000000e+001
         vertex 4.960000e+001 -2.500000e-001 5.462058e-016
         vertex 4.960000e+001 -2.500000e-001 1.000000e+001
      endloop
   endfacet
   facet normal 1.000000e+000 -6.125742e-017 0.000000e+000
      outer loop
         vertex 5.290000e+001 -2.500000e-001 1.000000e+001
         vertex 5.290000e+001 -2.500000e-001 2.982148e-016
         vertex 5.290000e+001 7.500000e-001 -2.675798e-016
      endloop
   endfacet
   facet normal 1.000000e+000 -6.125742e-017 0.000000e+000
      outer loop
         vertex 5.290000e+001 -2.500000e-001 1.000000e+001
         vertex 5.290000e+001 7.500000e-001 -2.675798e-016
         vertex 5.290000e+001 7.500000e-001 1.000000e+001
      endloop
   endfacet
   facet normal 6.123234e-017 1.000000e+000 0.000000e+000
      outer loop
         vertex 5.290000e+001 7.500000e-001 1.000000e+001
         vertex 5.290000e+001 7.500000e-001 -2.675798e-016
         vertex 4.960000e+001 7.500000e-001 -3.204747e-031
      endloop
   endfacet
   facet normal 6.123234e-017 1.000000e+000 0.000000e+000
      outer loop
         vertex 5.290000e+001 7.500000e-001 1.000000e+001
         vertex 4.960000e+001 7.500000e-001 -3.204747e-031
         vertex 4.960000e+001 7.500000e-001 1.000000e+001
      endloop
   endfacet
   facet normal 0.000000e+000 0.000000e+000 1.000000e+000
      outer loop
         vertex 5.472500e+001 -2.500000e-001 1.000000e+001
         vertex 5.802500e+001 -2.500000e-001 1.000000e+001
         vertex 5.802500e+001 7.500000e-001 1.000000e+001
      endloop
   endfacet
   facet normal 0.000000e+000 0.000000e+000 1.000000e+000
      outer loop
         vertex 5.472500e+001 -2.500000e-001 1.000000e+001
         vertex 5.802500e+001 7.500000e-001 1.000000e+001
         vertex 5.472500e+001 7.500000e-001 1.000000e+001
      endloop
   endfacet
   facet normal -1.000000e+000 1.224647e-016 0.000000e+000
      outer loop
         vertex 5.472500e+001 7.500000e-001 1.000000e+001
         vertex 5.472500e+001 7.500000e-001 2.476981e-016
         vertex 5.472500e+001 -2.500000e-001 2.323900e-016
      endloop
   endfacet
   facet normal -1.000000e+000 1.224647e-016 0.000000e+000
      outer loop
         vertex 5.472500e+001 7.500000e-001 1.000000e+001
         vertex 5.472500e+001 -2.500000e-001 2.323900e-016
         vertex 5.472500e+001 -2.500000e-001 1.000000e+001
      endloop
   endfacet
   facet normal 1.000000e+000 -6.125742e-017 0.000000e+000
      outer loop
         vertex 5.802500e+001 -2.500000e-001 1.000000e+001
         vertex 5.802500e+001 -2.500000e-001 -1.560093e-017
         vertex 5.802500e+001 7.500000e-001 4.623591e-017
      endloop
   endfacet
   facet normal 1.000000e+000 -6.125742e-017 0.000000e+000
      outer loop
         vertex 5.802500e+001 -2.500000e-001 1.000000e+001
         vertex 5.802500e+001 7.500000e-001 4.623591e-017
         vertex 5.802500e+001 7.500000e-001 1.000000e+001
      endloop
   endfacet
   facet normal 6.123234e-017 1.000000e+000 0.000000e+000
      outer loop
         vertex 5.802500e+001 7.500000e-001 1.000000e+001
         vertex 5.802500e+001 7.500000e-001 4.623591e-017
         vertex 5.472500e+001 7.500000e-001 -7.149052e-031
      endloop
   endfacet
   facet normal 6.123234e-017 1.000000e+000 0.000000e+000
      outer loop
         vertex 5.802500e+001 7.500000e-001 1.000000e+001
         vertex 5.472500e+001 7.500000e-001 -7.149052e-031
         vertex 5.472500e+001 7.500000e-001 1.000000e+001
      endloop
   endfacet
   facet normal 0.000000e+000 0.000000e+000 1.000000e+000
      outer loop
         vertex 5.985000e+001 -2.500000e-001 1.000000e+001
         vertex 6.315000e+001 -2.500000e-001 1.000000e+001
         vertex 6.315000e+001 7.500000e-001 1.000000e+001
      endloop
   endfacet
   facet normal 0.000000e+000 0.000000e+000 1.000000e+000
      outer loop
         vertex 5.985000e+001 -2.500000e-001 1.000000e+001
         vertex 6.315000e+001 7.500000e-001 1.000000e+001
         vertex 5.985000e+001 7.500000e-001 1.000000e+001
      endloop
   endfacet
   facet normal -1.000000e+000 1.224647e-016 0.000000e+000
      outer loop
         vertex 5.985000e+001 7.500000e-001 1.000000e+001
         vertex 5.985000e+001 7.500000e-001 -6.611761e-017
         vertex 5.985000e+001 -2.500000e-001 -8.142570e-017
      endloop
   endfacet
   facet normal -1.000000e+000 1.224647e-016 0.000000e+000
      outer loop
         vertex 5.985000e+001 7.500000e-001 1.000000e+001
         vertex 5.985000e+001 -2.500000e-001 -8.142570e-017
         vertex 5.985000e+001 -2.500000e-001 1.000000e+001
      endloop
   endfacet
   facet normal 1.000000e+000 -6.125742e-017 0.000000e+000
      outer loop
         vertex 6.315000e+001 -2.500000e-001 1.000000e+001
         vertex 6.315000e+001 -2.500000e-001 -3.294167e-016
         vertex 6.315000e+001 7.500000e-001 3.600517e-016
      endloop
   endfacet
   facet normal 1.000000e+000 -6.125742e-017 0.000000e+000
      outer loop
         vertex 6.315000e+001 -2.500000e-001 1.000000e+001
         vertex 6.315000e+001 7.500000e-001 3.600517e-016
         vertex 6.315000e+001 7.500000e-001 1.000000e+001
      endloop
   endfacet
   facet normal 6.123234e-017 1.000000e+000 0.000000e+000
      outer loop
         vertex 6.315000e+001 7.500000e-001 1.000000e+001
         vertex 6.315000e+001 7.500000e-001 3.600517e-016
         vertex 5.985000e+001 7.500000e-001 -7.149052e-031
      endloop
   endfacet
   facet normal 6.123234e-017 1.000000e+000 0.000000e+000
      outer loop
         vertex 6.315000e+001 7.500000e-001 1.000000e+001
         vertex 5.985000e+001 7.500000e-001 -7.149052e-031
         vertex 5.985000e+001 7.500000e-001 1.000000e+001
      endloop
   endfacet
   facet normal 0.000000e+000 0.000000e+000 1.000000e+000
      outer loop
         vertex 6.497500e+001 -2.500000e-001 1.000000e+001
         vertex 6.827500e+001 -2.500000e-001 1.000000e+001
         vertex 6.827500e+001 7.500000e-001 1.000000e+001
      endloop
   endfacet
   facet normal 0.000000e+000 0.000000e+000 1.000000e+000
      outer loop
         vertex 6.497500e+001 -2.500000e-001 1.000000e+001
         vertex 6.827500e+001 7.500000e-001 1.000000e+001
         vertex 6.497500e+001 7.500000e-001 1.000000e+001
      endloop
   endfacet
   facet normal -1.000000e+000 1.224647e-016 0.000000e+000
      outer loop
         vertex 6.497500e+001 7.500000e-001 1.000000e+001
         vertex 6.497500e+001 7.500000e-001 -3.799334e-016
         vertex 6.497500e+001 -2.500000e-001 -3.952414e-016
      endloop
   endfacet
   facet normal -1.000000e+000 1.224647e-016 0.000000e+000
      outer loop
         vertex 6.497500e+001 7.500000e-001 1.000000e+001
         vertex 6.497500e+001 -2.500000e-001 -3.952414e-016
         vertex 6.497500e+001 -2.500000e-001 1.000000e+001
      endloop
   endfacet
   facet normal 1.000000e+000 -6.125742e-017 0.000000e+000
      outer loop
         vertex 6.827500e+001 -2.500000e-001 1.000000e+001
         vertex 6.827500e+001 -2.500000e-001 -6.432324e-016
         vertex 6.827500e+001 7.500000e-001 6.738674e-016
      endloop
   endfacet
   facet normal 1.000000e+000 -6.125742e-017 0.000000e+000
      outer loop
         vertex 6.827500e+001 -2.500000e-001 1.000000e+001
         vertex 6.827500e+001 7.500000e-001 6.738674e-016
         vertex 6.827500e+001 7.500000e-001 1.000000e+001
      endloop
   endfacet
   facet normal 6.123234e-017 1.000000e+000 0.000000e+000
      outer loop
         vertex 6.827500e+001 7.500000e-001 1.000000e+001
         vertex 6.827500e+001 7.500000e-001 6.738674e-016
         vertex 6.497500e+001 7.500000e-001 -7.149052e-031
      endloop
   endfacet
   facet normal 6.123234e-017 1.000000e+000 0.000000e+000
      outer loop
         vertex 6.827500e+001 7.500000e-001 1.000000e+001
         vertex 6.497500e+001 7.500000e-001 -7.149052e-031
         vertex 6.497500e+001 7.500000e-001 1.000000e+001
      endloop
   endfacet
   facet normal 0.000000e+000 0.000000e+000 1.000000e+000
      outer loop
         vertex 7.010000e+001 -2.500000e-001 1.000000e+001
         vertex 7.340000e+001 -2.500000e-001 1.000000e+001
         vertex 7.340000e+001 7.500000e-001 1.000000e+001
      endloop
   endfacet
   facet normal 0.000000e+000 0.000000e+000 1.000000e+000
      outer loop
         vertex 7.010000e+001 -2.500000e-001 1.000000e+001
         vertex 7.340000e+001 7.500000e-001 1.000000e+001
         vertex 7.010000e+001 7.500000e-001 1.000000e+001
      endloop
   endfacet
   facet normal -1.000000e+000 1.224647e-016 0.000000e+000
      outer loop
         vertex 7.010000e+001 7.500000e-001 1.000000e+001
         vertex 7.010000e+001 7.500000e-001 -6.937491e-016
         vertex 7.010000e+001 -2.500000e-001 -7.090572e-016
      endloop
   endfacet
   facet normal -1.000000e+000 1.224647e-016 0.000000e+000
      outer loop
         vertex 7.010000e+001 7.500000e-001 1.000000e+001
         vertex 7.010000e+001 -2.500000e-001 -7.090572e-016
         vertex 7.010000e+001 -2.500000e-001 1.000000e+001
      endloop
   endfacet
   facet normal 1.000000e+000 -6.125742e-017 0.000000e+000
      outer loop
         vertex 7.340000e+001 -2.500000e-001 1.000000e+001
         vertex 7.340000e+001 -2.500000e-001 -9.570482e-016
         vertex 7.340000e+001 7.500000e-001 -7.886737e-016
      endloop
   endfacet
   facet normal 1.000000e+000 -6.125742e-017 0.000000e+000
      outer loop
         vertex 7.340000e+001 -2.500000e-001 1.000000e+001
         vertex 7.340000e+001 7.500000e-001 -7.886737e-016
         vertex 7.340000e+001 7.500000e-001 1.000000e+001
      endloop
   endfacet
   facet normal 6.123234e-017 1.000000e+000 0.000000e+000
      outer loop
         vertex 7.340000e+001 7.500000e-001 1.000000e+001
         vertex 7.340000e+001 7.500000e-001 -7.886737e-016
         vertex 7.010000e+001 7.500000e-001 -7.149052e-031
      endloop
   endfacet
   facet normal 6.123234e-017 1.000000e+000 0.000000e+000
      outer loop
         vertex 7.340000e+001 7.500000e-001 1.000000e+001
         vertex 7.010000e+001 7.500000e-001 -7.149052e-031
         vertex 7.010000e+001 7.500000e-001 1.000000e+001
      endloop
   endfacet
   facet normal 0.000000e+000 0.000000e+000 1.000000e+000
      outer loop
         vertex 7.522500e+001 -2.500000e-001 1.000000e+001
         vertex 7.852500e+001 -2.500000e-001 1.000000e+001
         vertex 7.852500e+001 7.500000e-001 1.000000e+001
      endloop
   endfacet
   facet normal 0.000000e+000 0.000000e+000 1.000000e+000
      outer loop
         vertex 7.522500e+001 -2.500000e-001 1.000000e+001
         vertex 7.852500e+001 7.500000e-001 1.000000e+001
         vertex 7.522500e+001 7.500000e-001 1.000000e+001
      endloop
   endfacet
   facet normal -1.000000e+000 1.224647e-016 0.000000e+000
      outer loop
         vertex 7.522500e+001 7.500000e-001 1.000000e+001
         vertex 7.522500e+001 7.500000e-001 7.687920e-016
         vertex 7.522500e+001 -2.500000e-001 7.534839e-016
      endloop
   endfacet
   facet normal -1.000000e+000 1.224647e-016 0.000000e+000
      outer loop
         vertex 7.522500e+001 7.500000e-001 1.000000e+001
         vertex 7.522500e+001 -2.500000e-001 7.534839e-016
         vertex 7.522500e+001 -2.500000e-001 1.000000e+001
      endloop
   endfacet
   facet normal 1.000000e+000 -6.125742e-017 0.000000e+000
      outer loop
         vertex 7.852500e+001 -2.500000e-001 1.000000e+001
         vertex 7.852500e+001 -2.500000e-001 -1.270864e-015
         vertex 7.852500e+001 7.500000e-001 -4.748580e-016
      endloop
   endfacet
   facet normal 1.000000e+000 -6.125742e-017 0.000000e+000
      outer loop
         vertex 7.852500e+001 -2.500000e-001 1.000000e+001
         vertex 7.852500e+001 7.500000e-001 -4.748580e-016
         vertex 7.852500e+001 7.500000e-001 1.000000e+001
      endloop
   endfacet
   facet normal 6.123234e-017 1.000000e+000 0.000000e+000
      outer loop
         vertex 7.852500e+001 7.500000e-001 1.000000e+001
         vertex 7.852500e+001 7.500000e-001 -4.748580e-016
         vertex 7.522500e+001 7.500000e-001 -7.149052e-031
      endloop
   endfacet
   facet normal 6.123234e-017 1.000000e+000 0.000000e+000
      outer loop
         vertex 7.852500e+001 7.500000e-001 1.000000e+001
         vertex 7.522500e+001 7.500000e-001 -7.149052e-031
         vertex 7.522500e+001 7.500000e-001 1.000000e+001
      endloop
   endfacet
   facet normal 0.000000e+000 0.000000e+000 1.000000e+000
      outer loop
         vertex 8.035000e+001 -2.500000e-001 1.000000e+001
         vertex 8.365000e+001 -2.500000e-001 1.000000e+001
         vertex 8.365000e+001 7.500000e-001 1.000000e+001
      endloop
   endfacet
   facet normal 0.000000e+000 0.000000e+000 1.000000e+000
      outer loop
         vertex 8.035000e+001 -2.500000e-001 1.000000e+001
         vertex 8.365000e+001 7.500000e-001 1.000000e+001
         vertex 8.035000e+001 7.500000e-001 1.000000e+001
      endloop
   endfacet
   facet normal -1.000000e+000 1.224647e-016 0.000000e+000
      outer loop
         vertex 8.035000e+001 7.500000e-001 1.000000e+001
         vertex 8.035000e+001 7.500000e-001 4.549763e-016
         vertex 8.035000e+001 -2.500000e-001 4.396682e-016
      endloop
   endfacet
   facet normal -1.000000e+000 1.224647e-016 0.000000e+000
      outer loop
         vertex 8.035000e+001 7.500000e-001 1.000000e+001
         vertex 8.035000e+001 -2.500000e-001 4.396682e-016
         vertex 8.035000e+001 -2.500000e-001 1.000000e+001
      endloop
   endfacet
   facet normal 1.000000e+000 -6.125742e-017 0.000000e+000
      outer loop
         vertex 8.365000e+001 -2.500000e-001 1.000000e+001
         vertex 8.365000e+001 -2.500000e-001 5.520748e-015
         vertex 8.365000e+001 7.500000e-001 -1.610422e-016
      endloop
   endfacet
   facet normal 1.000000e+000 -6.125742e-017 0.000000e+000
      outer loop
         vertex 8.365000e+001 -2.500000e-001 1.000000e+001
         vertex 8.365000e+001 7.500000e-001 -1.610422e-016
         vertex 8.365000e+001 7.500000e-001 1.000000e+001
      endloop
   endfacet
   facet normal 6.123234e-017 1.000000e+000 0.000000e+000
      outer loop
         vertex 8.365000e+001 7.500000e-001 1.000000e+001
         vertex 8.365000e+001 7.500000e-001 -1.610422e-016
         vertex 8.035000e+001 7.500000e-001 -7.149052e-031
      endloop
   endfacet
   facet normal 6.123234e-017 1.000000e+000 0.000000e+000
      outer loop
         vertex 8.365000e+001 7.500000e-001 1.000000e+001
         vertex 8.035000e+001 7.500000e-001 -7.149052e-031
         vertex 8.035000e+001 7.500000e-001 1.000000e+001
      endloop
   endfacet
   facet normal 0.000000e+000 0.000000e+000 1.000000e+000
      outer loop
         vertex 8.365000e+001 7.500000e-001 -7.149052e-031
         vertex 8.365000e+001 -2.500000e-001 -2.222996e-016
         vertex 8.444622e+001 -2.500000e-001 1.919280e-015
      endloop
   endfacet
   facet normal 0.000000e+000 0.000000e+000 1.000000e+000
      outer loop
         vertex 8.365000e+001 7.500000e-001 -7.149052e-031
         vertex 8.444622e+001 -2.500000e-001 1.919280e-015
         vertex 8.450489e+001 -2.500000e-001 1.915687e-015
      endloop
   endfacet
   facet normal 0.000000e+000 0.000000e+000 1.000000e+000
      outer loop
         vertex 8.365000e+001 7.500000e-001 -7.149052e-031
         vertex 8.450489e+001 -2.500000e-001 1.915687e-015
         vertex 8.450489e+001 7.500000e-001 0.000000e+000
      endloop
   endfacet
   facet normal 0.000000e+000 0.000000e+000 1.000000e+000
      outer loop
         vertex 7.852500e+001 -2.500000e-001 -5.361154e-016
         vertex 8.035000e+001 -2.500000e-001 2.170101e-015
         vertex 8.035000e+001 7.500000e-001 3.172035e-016
      endloop
   endfacet
   facet normal 0.000000e+000 0.000000e+000 1.000000e+000
      outer loop
         vertex 7.852500e+001 -2.500000e-001 -5.361154e-016
         vertex 8.035000e+001 7.500000e-001 3.172035e-016
         vertex 7.852500e+001 7.500000e-001 -7.149052e-031
      endloop
   endfacet
   facet normal 0.000000e+000 0.000000e+000 1.000000e+000
      outer loop
         vertex 7.340000e+001 -2.500000e-001 -8.499311e-016
         vertex 7.522500e+001 -2.500000e-001 2.483916e-015
         vertex 7.522500e+001 7.500000e-001 6.310192e-016
      endloop
   endfacet
   facet normal 0.000000e+000 0.000000e+000 1.000000e+000
      outer loop
         vertex 7.340000e+001 -2.500000e-001 -8.499311e-016
         vertex 7.522500e+001 7.500000e-001 6.310192e-016
         vertex 7.340000e+001 7.500000e-001 -7.149052e-031
      endloop
   endfacet
   facet normal 0.000000e+000 0.000000e+000 1.000000e+000
      outer loop
         vertex 6.827500e+001 -2.500000e-001 6.126100e-016
         vertex 7.010000e+001 -2.500000e-001 2.797732e-015
         vertex 7.010000e+001 7.500000e-001 -8.315219e-016
      endloop
   endfacet
   facet normal 0.000000e+000 0.000000e+000 1.000000e+000
      outer loop
         vertex 6.827500e+001 -2.500000e-001 6.126100e-016
         vertex 7.010000e+001 7.500000e-001 -8.315219e-016
         vertex 6.827500e+001 7.500000e-001 7.395571e-032
      endloop
   endfacet
   facet normal 0.000000e+000 0.000000e+000 1.000000e+000
      outer loop
         vertex 6.315000e+001 -2.500000e-001 2.987942e-016
         vertex 6.497500e+001 -2.500000e-001 3.111548e-015
         vertex 6.497500e+001 7.500000e-001 -5.177061e-016
      endloop
   endfacet
   facet normal 0.000000e+000 0.000000e+000 1.000000e+000
      outer loop
         vertex 6.315000e+001 -2.500000e-001 2.987942e-016
         vertex 6.497500e+001 7.500000e-001 -5.177061e-016
         vertex 6.315000e+001 7.500000e-001 -7.149052e-031
      endloop
   endfacet
   facet normal 0.000000e+000 0.000000e+000 1.000000e+000
      outer loop
         vertex 5.802500e+001 -2.500000e-001 -1.502151e-017
         vertex 5.985000e+001 -2.500000e-001 3.425364e-015
         vertex 5.985000e+001 7.500000e-001 -2.038904e-016
      endloop
   endfacet
   facet normal 0.000000e+000 0.000000e+000 1.000000e+000
      outer loop
         vertex 5.802500e+001 -2.500000e-001 -1.502151e-017
         vertex 5.985000e+001 7.500000e-001 -2.038904e-016
         vertex 5.802500e+001 7.500000e-001 -3.204747e-031
      endloop
   endfacet
   facet normal 0.000000e+000 0.000000e+000 1.000000e+000
      outer loop
         vertex 5.290000e+001 -2.500000e-001 -3.288373e-016
         vertex 5.472500e+001 -2.500000e-001 3.739179e-015
         vertex 5.472500e+001 7.500000e-001 1.099254e-016
      endloop
   endfacet
   facet normal 0.000000e+000 0.000000e+000 1.000000e+000
      outer loop
         vertex 5.290000e+001 -2.500000e-001 -3.288373e-016
         vertex 5.472500e+001 7.500000e-001 1.099254e-016
         vertex 5.290000e+001 7.500000e-001 -7.149052e-031
      endloop
   endfacet
   facet normal 0.000000e+000 0.000000e+000 1.000000e+000
      outer loop
         vertex 4.777500e+001 -2.500000e-001 -6.426530e-016
         vertex 4.960000e+001 -2.500000e-001 4.052995e-015
         vertex 4.960000e+001 7.500000e-001 4.237411e-016
      endloop
   endfacet
   facet normal 0.000000e+000 0.000000e+000 1.000000e+000
      outer loop
         vertex 4.777500e+001 -2.500000e-001 -6.426530e-016
         vertex 4.960000e+001 7.500000e-001 4.237411e-016
         vertex 4.777500e+001 7.500000e-001 -7.149052e-031
      endloop
   endfacet
   facet normal 0.000000e+000 0.000000e+000 1.000000e+000
      outer loop
         vertex 4.265000e+001 -2.500000e-001 8.198881e-016
         vertex 4.447500e+001 -2.500000e-001 8.140973e-016
         vertex 4.447500e+001 7.500000e-001 7.375568e-016
      endloop
   endfacet
   facet normal 0.000000e+000 0.000000e+000 1.000000e+000
      outer loop
         vertex 4.265000e+001 -2.500000e-001 8.198881e-016
         vertex 4.447500e+001 7.500000e-001 7.375568e-016
         vertex 4.265000e+001 7.500000e-001 -7.149052e-031
      endloop
   endfacet
   facet normal 0.000000e+000 0.000000e+000 1.000000e+000
      outer loop
         vertex 3.752500e+001 -2.500000e-001 5.060724e-016
         vertex 3.935000e+001 -2.500000e-001 1.127913e-015
         vertex 3.935000e+001 7.500000e-001 -7.249842e-016
      endloop
   endfacet
   facet normal 0.000000e+000 0.000000e+000 1.000000e+000
      outer loop
         vertex 3.752500e+001 -2.500000e-001 5.060724e-016
         vertex 3.935000e+001 7.500000e-001 -7.249842e-016
         vertex 3.752500e+001 7.500000e-001 -7.149052e-031
      endloop
   endfacet
   facet normal 0.000000e+000 0.000000e+000 1.000000e+000
      outer loop
         vertex 3.240000e+001 -2.500000e-001 1.922566e-016
         vertex 3.422500e+001 -2.500000e-001 1.441729e-015
         vertex 3.422500e+001 7.500000e-001 -4.111685e-016
      endloop
   endfacet
   facet normal 0.000000e+000 0.000000e+000 1.000000e+000
      outer loop
         vertex 3.240000e+001 -2.500000e-001 1.922566e-016
         vertex 3.422500e+001 7.500000e-001 -4.111685e-016
         vertex 3.240000e+001 7.500000e-001 -3.204747e-031
      endloop
   endfacet
   facet normal 0.000000e+000 0.000000e+000 1.000000e+000
      outer loop
         vertex 2.727500e+001 -2.500000e-001 -1.215591e-016
         vertex 2.910000e+001 -2.500000e-001 1.755545e-015
         vertex 2.910000e+001 7.500000e-001 -9.735276e-017
      endloop
   endfacet
   facet normal 0.000000e+000 0.000000e+000 1.000000e+000
      outer loop
         vertex 2.727500e+001 -2.500000e-001 -1.215591e-016
         vertex 2.910000e+001 7.500000e-001 -9.735276e-017
         vertex 2.727500e+001 7.500000e-001 7.395571e-032
      endloop
   endfacet
   facet normal 0.000000e+000 0.000000e+000 1.000000e+000
      outer loop
         vertex 2.215000e+001 -2.500000e-001 -4.353749e-016
         vertex 2.397500e+001 -2.500000e-001 2.069360e-015
         vertex 2.397500e+001 7.500000e-001 2.164630e-016
      endloop
   endfacet
   facet normal 0.000000e+000 0.000000e+000 1.000000e+000
      outer loop
         vertex 2.215000e+001 -2.500000e-001 -4.353749e-016
         vertex 2.397500e+001 7.500000e-001 2.164630e-016
         vertex 2.215000e+001 7.500000e-001 -1.232595e-031
      endloop
   endfacet
   facet normal 0.000000e+000 0.000000e+000 1.000000e+000
      outer loop
         vertex 1.702500e+001 -2.500000e-001 -7.491906e-016
         vertex 1.885000e+001 -2.500000e-001 2.383176e-015
         vertex 1.885000e+001 7.500000e-001 5.302787e-016
      endloop
   endfacet
   facet normal 0.000000e+000 0.000000e+000 1.000000e+000
      outer loop
         vertex 1.702500e+001 -2.500000e-001 -7.491906e-016
         vertex 1.885000e+001 7.500000e-001 5.302787e-016
         vertex 1.702500e+001 7.500000e-001 -1.232595e-031
      endloop
   endfacet
   facet normal 0.000000e+000 0.000000e+000 1.000000e+000
      outer loop
         vertex 1.190000e+001 -2.500000e-001 7.133505e-016
         vertex 1.372500e+001 -2.500000e-001 2.696992e-015
         vertex 1.372500e+001 7.500000e-001 -9.322624e-016
      endloop
   endfacet
   facet normal 0.000000e+000 0.000000e+000 1.000000e+000
      outer loop
         vertex 1.190000e+001 -2.500000e-001 7.133505e-016
         vertex 1.372500e+001 7.500000e-001 -9.322624e-016
         vertex 1.190000e+001 7.500000e-001 -1.232595e-031
      endloop
   endfacet
   facet normal 0.000000e+000 0.000000e+000 1.000000e+000
      outer loop
         vertex 2.504893e+000 -2.500000e-001 -3.061617e-017
         vertex 3.475000e+000 -2.500000e-001 3.324623e-015
         vertex 3.475000e+000 7.500000e-001 -3.046309e-016
      endloop
   endfacet
   facet normal 0.000000e+000 0.000000e+000 1.000000e+000
      outer loop
         vertex 2.504893e+000 -2.500000e-001 -3.061617e-017
         vertex 3.475000e+000 7.500000e-001 -3.046309e-016
         vertex 2.504893e+000 7.500000e-001 0.000000e+000
      endloop
   endfacet
   facet normal 0.000000e+000 0.000000e+000 1.000000e+000
      outer loop
         vertex 6.775000e+000 -2.500000e-001 3.995347e-016
         vertex 8.600000e+000 -2.500000e-001 3.010807e-015
         vertex 8.600000e+000 7.500000e-001 -6.184466e-016
      endloop
   endfacet
   facet normal 0.000000e+000 0.000000e+000 1.000000e+000
      outer loop
         vertex 6.775000e+000 -2.500000e-001 3.995347e-016
         vertex 8.600000e+000 7.500000e-001 -6.184466e-016
         vertex 6.775000e+000 7.500000e-001 -7.395571e-032
      endloop
   endfacet
   facet normal -1.000000e+000 1.224647e-016 0.000000e+000
      outer loop
         vertex 2.504893e+000 7.500000e-001 1.917379e-017
         vertex 2.504893e+000 7.500000e-001 -1.493128e+000
         vertex 2.504893e+000 -2.500000e-001 -1.493128e+000
      endloop
   endfacet
   facet normal -1.000000e+000 1.224647e-016 0.000000e+000
      outer loop
         vertex 2.504893e+000 7.500000e-001 1.917379e-017
         vertex 2.504893e+000 -2.500000e-001 -1.493128e+000
         vertex 2.504893e+000 -2.500000e-001 -1.686886e-016
      endloop
   endfacet
   facet normal 1.000000e+000 -6.125742e-017 0.000000e+000
      outer loop
         vertex 8.450489e+001 -2.500000e-001 -1.224898e-016
         vertex 8.450489e+001 -2.500000e-001 -1.493128e+000
         vertex 8.450489e+001 7.500000e-001 -1.493128e+000
      endloop
   endfacet
   facet normal 1.000000e+000 -6.125742e-017 0.000000e+000
      outer loop
         vertex 8.450489e+001 -2.500000e-001 -1.224898e-016
         vertex 8.450489e+001 7.500000e-001 -1.493128e+000
         vertex 8.450489e+001 7.500000e-001 0.000000e+000
      endloop
   endfacet
   facet normal 6.123234e-017 1.000000e+000 0.000000e+000
      outer loop
         vertex 8.450489e+001 7.500000e-001 7.395571e-032
         vertex 8.450489e+001 7.500000e-001 -1.493128e+000
         vertex 2.504893e+000 7.500000e-001 -1.493128e+000
      endloop
   endfacet
   facet normal 6.123234e-017 1.000000e+000 0.000000e+000
      outer loop
         vertex 8.450489e+001 7.500000e-001 7.395571e-032
         vertex 2.504893e+000 7.500000e-001 -1.493128e+000
         vertex 2.504893e+000 7.500000e-001 0.000000e+000
      endloop
   endfacet
   facet normal 6.123234e-017 1.000000e+000 0.000000e+000
      outer loop
         vertex 8.450489e+001 7.500000e-001 7.395571e-032
         vertex 3.475000e+000 7.500000e-001 0.000000e+000
         vertex 2.504893e+000 7.500000e-001 0.000000e+000
      endloop
   endfacet
   facet normal 6.123234e-017 1.000000e+000 0.000000e+000
      outer loop
         vertex 8.450489e+001 7.500000e-001 7.395571e-032
         vertex 6.775000e+000 7.500000e-001 -7.395571e-032
         vertex 3.475000e+000 7.500000e-001 0.000000e+000
      endloop
   endfacet
   facet normal 6.123234e-017 1.000000e+000 0.000000e+000
      outer loop
         vertex 8.450489e+001 7.500000e-001 7.395571e-032
         vertex 8.600000e+000 7.500000e-001 -1.232595e-031
         vertex 6.775000e+000 7.500000e-001 -7.395571e-032
      endloop
   endfacet
   facet normal 6.123234e-017 1.000000e+000 0.000000e+000
      outer loop
         vertex 8.450489e+001 7.500000e-001 7.395571e-032
         vertex 1.190000e+001 7.500000e-001 -1.232595e-031
         vertex 8.600000e+000 7.500000e-001 -1.232595e-031
      endloop
   endfacet
   facet normal 6.123234e-017 1.000000e+000 0.000000e+000
      outer loop
         vertex 8.450489e+001 7.500000e-001 7.395571e-032
         vertex 1.372500e+001 7.500000e-001 -1.232595e-031
         vertex 1.190000e+001 7.500000e-001 -1.232595e-031
      endloop
   endfacet
   facet normal 6.123234e-017 1.000000e+000 0.000000e+000
      outer loop
         vertex 8.450489e+001 7.500000e-001 7.395571e-032
         vertex 1.702500e+001 7.500000e-001 -1.232595e-031
         vertex 1.372500e+001 7.500000e-001 -1.232595e-031
      endloop
   endfacet
   facet normal 6.123234e-017 1.000000e+000 0.000000e+000
      outer loop
         vertex 8.450489e+001 7.500000e-001 7.395571e-032
         vertex 1.885000e+001 7.500000e-001 -1.232595e-031
         vertex 1.702500e+001 7.500000e-001 -1.232595e-031
      endloop
   endfacet
   facet normal 6.123234e-017 1.000000e+000 0.000000e+000
      outer loop
         vertex 8.450489e+001 7.500000e-001 7.395571e-032
         vertex 2.215000e+001 7.500000e-001 -1.232595e-031
         vertex 1.885000e+001 7.500000e-001 -1.232595e-031
      endloop
   endfacet
   facet normal 6.123234e-017 1.000000e+000 0.000000e+000
      outer loop
         vertex 8.450489e+001 7.500000e-001 7.395571e-032
         vertex 2.397500e+001 7.500000e-001 -1.232595e-031
         vertex 2.215000e+001 7.500000e-001 -1.232595e-031
      endloop
   endfacet
   facet normal 6.123234e-017 1.000000e+000 0.000000e+000
      outer loop
         vertex 8.450489e+001 7.500000e-001 7.395571e-032
         vertex 2.397500e+001 7.500000e-001 -1.232595e-031
         vertex 2.727500e+001 7.500000e-001 7.395571e-032
      endloop
   endfacet
   facet normal 6.123234e-017 1.000000e+000 0.000000e+000
      outer loop
         vertex 8.450489e+001 7.500000e-001 7.395571e-032
         vertex 2.910000e+001 7.500000e-001 -5.176900e-031
         vertex 2.727500e+001 7.500000e-001 7.395571e-032
      endloop
   endfacet
   facet normal 6.123234e-017 1.000000e+000 0.000000e+000
      outer loop
         vertex 8.450489e+001 7.500000e-001 7.395571e-032
         vertex 2.910000e+001 7.500000e-001 -5.176900e-031
         vertex 3.240000e+001 7.500000e-001 -3.204747e-031
      endloop
   endfacet
   facet normal 6.123234e-017 1.000000e+000 0.000000e+000
      outer loop
         vertex 8.450489e+001 7.500000e-001 7.395571e-032
         vertex 3.422500e+001 7.500000e-001 -7.149052e-031
         vertex 3.240000e+001 7.500000e-001 -3.204747e-031
      endloop
   endfacet
   facet normal 6.123234e-017 1.000000e+000 0.000000e+000
      outer loop
         vertex 8.450489e+001 7.500000e-001 7.395571e-032
         vertex 3.752500e+001 7.500000e-001 -7.149052e-031
         vertex 3.422500e+001 7.500000e-001 -7.149052e-031
      endloop
   endfacet
   facet normal 6.123234e-017 1.000000e+000 0.000000e+000
      outer loop
         vertex 8.450489e+001 7.500000e-001 7.395571e-032
         vertex 3.935000e+001 7.500000e-001 -7.149052e-031
         vertex 3.752500e+001 7.500000e-001 -7.149052e-031
      endloop
   endfacet
   facet normal 6.123234e-017 1.000000e+000 0.000000e+000
      outer loop
         vertex 8.450489e+001 7.500000e-001 7.395571e-032
         vertex 4.265000e+001 7.500000e-001 -7.149052e-031
         vertex 3.935000e+001 7.500000e-001 -7.149052e-031
      endloop
   endfacet
   facet normal 6.123234e-017 1.000000e+000 0.000000e+000
      outer loop
         vertex 8.450489e+001 7.500000e-001 7.395571e-032
         vertex 4.447500e+001 7.500000e-001 -7.149052e-031
         vertex 4.265000e+001 7.500000e-001 -7.149052e-031
      endloop
   endfacet
   facet normal 6.123234e-017 1.000000e+000 0.000000e+000
      outer loop
         vertex 8.450489e+001 7.500000e-001 7.395571e-032
         vertex 4.777500e+001 7.500000e-001 -7.149052e-031
         vertex 4.447500e+001 7.500000e-001 -7.149052e-031
      endloop
   endfacet
   facet normal 6.123234e-017 1.000000e+000 0.000000e+000
      outer loop
         vertex 8.450489e+001 7.500000e-001 7.395571e-032
         vertex 4.777500e+001 7.500000e-001 -7.149052e-031
         vertex 4.960000e+001 7.500000e-001 -3.204747e-031
      endloop
   endfacet
   facet normal 6.123234e-017 1.000000e+000 0.000000e+000
      outer loop
         vertex 8.450489e+001 7.500000e-001 7.395571e-032
         vertex 5.290000e+001 7.500000e-001 -7.149052e-031
         vertex 4.960000e+001 7.500000e-001 -3.204747e-031
      endloop
   endfacet
   facet normal 6.123234e-017 1.000000e+000 0.000000e+000
      outer loop
         vertex 8.450489e+001 7.500000e-001 7.395571e-032
         vertex 5.472500e+001 7.500000e-001 -7.149052e-031
         vertex 5.290000e+001 7.500000e-001 -7.149052e-031
      endloop
   endfacet
   facet normal 6.123234e-017 1.000000e+000 0.000000e+000
      outer loop
         vertex 8.450489e+001 7.500000e-001 7.395571e-032
         vertex 5.472500e+001 7.500000e-001 -7.149052e-031
         vertex 5.802500e+001 7.500000e-001 -3.204747e-031
      endloop
   endfacet
   facet normal 6.123234e-017 1.000000e+000 0.000000e+000
      outer loop
         vertex 8.450489e+001 7.500000e-001 7.395571e-032
         vertex 5.985000e+001 7.500000e-001 -7.149052e-031
         vertex 5.802500e+001 7.500000e-001 -3.204747e-031
      endloop
   endfacet
   facet normal 6.123234e-017 1.000000e+000 0.000000e+000
      outer loop
         vertex 8.450489e+001 7.500000e-001 7.395571e-032
         vertex 6.315000e+001 7.500000e-001 -7.149052e-031
         vertex 5.985000e+001 7.500000e-001 -7.149052e-031
      endloop
   endfacet
   facet normal 6.123234e-017 1.000000e+000 0.000000e+000
      outer loop
         vertex 8.450489e+001 7.500000e-001 7.395571e-032
         vertex 6.497500e+001 7.500000e-001 -7.149052e-031
         vertex 6.315000e+001 7.500000e-001 -7.149052e-031
      endloop
   endfacet
   facet normal 6.123234e-017 1.000000e+000 0.000000e+000
      outer loop
         vertex 8.450489e+001 7.500000e-001 7.395571e-032
         vertex 6.497500e+001 7.500000e-001 -7.149052e-031
         vertex 6.827500e+001 7.500000e-001 7.395571e-032
      endloop
   endfacet
   facet normal 6.123234e-017 1.000000e+000 0.000000e+000
      outer loop
         vertex 8.450489e+001 7.500000e-001 7.395571e-032
         vertex 7.010000e+001 7.500000e-001 -7.149052e-031
         vertex 6.827500e+001 7.500000e-001 7.395571e-032
      endloop
   endfacet
   facet normal 6.123234e-017 1.000000e+000 0.000000e+000
      outer loop
         vertex 8.450489e+001 7.500000e-001 7.395571e-032
         vertex 7.340000e+001 7.500000e-001 -7.149052e-031
         vertex 7.010000e+001 7.500000e-001 -7.149052e-031
      endloop
   endfacet
   facet normal 6.123234e-017 1.000000e+000 0.000000e+000
      outer loop
         vertex 8.450489e+001 7.500000e-001 7.395571e-032
         vertex 7.522500e+001 7.500000e-001 -7.149052e-031
         vertex 7.340000e+001 7.500000e-001 -7.149052e-031
      endloop
   endfacet
   facet normal 6.123234e-017 1.000000e+000 0.000000e+000
      outer loop
         vertex 8.450489e+001 7.500000e-001 7.395571e-032
         vertex 7.852500e+001 7.500000e-001 -7.149052e-031
         vertex 7.522500e+001 7.500000e-001 -7.149052e-031
      endloop
   endfacet
   facet normal 6.123234e-017 1.000000e+000 0.000000e+000
      outer loop
         vertex 8.450489e+001 7.500000e-001 7.395571e-032
         vertex 8.035000e+001 7.500000e-001 -7.149052e-031
         vertex 7.852500e+001 7.500000e-001 -7.149052e-031
      endloop
   endfacet
   facet normal 6.123234e-017 1.000000e+000 0.000000e+000
      outer loop
         vertex 8.450489e+001 7.500000e-001 7.395571e-032
         vertex 8.365000e+001 7.500000e-001 -7.149052e-031
         vertex 8.035000e+001 7.500000e-001 -7.149052e-031
      endloop
   endfacet
   facet normal -6.123234e-017 -1.000000e+000 -0.000000e+000
      outer loop
         vertex 8.444622e+001 -2.500000e-001 -1.149313e+001
         vertex 3.475000e+000 -2.500000e-001 -2.280905e-016
         vertex 2.504893e+000 -2.500000e-001 -1.149313e+001
      endloop
   endfacet
   facet normal -6.123234e-017 -1.000000e+000 -0.000000e+000
      outer loop
         vertex 8.444622e+001 -2.500000e-001 -1.149313e+001
         vertex 6.775000e+000 -2.500000e-001 3.122556e-015
         vertex 3.475000e+000 -2.500000e-001 -2.280905e-016
      endloop
   endfacet
   facet normal -6.123234e-017 -1.000000e+000 -0.000000e+000
      outer loop
         vertex 8.444622e+001 -2.500000e-001 -1.149313e+001
         vertex 8.600000e+000 -2.500000e-001 -5.419062e-016
         vertex 6.775000e+000 -2.500000e-001 3.122556e-015
      endloop
   endfacet
   facet normal -6.123234e-017 -1.000000e+000 -0.000000e+000
      outer loop
         vertex 8.444622e+001 -2.500000e-001 -1.149313e+001
         vertex 1.190000e+001 -2.500000e-001 2.808741e-015
         vertex 8.600000e+000 -2.500000e-001 -5.419062e-016
      endloop
   endfacet
   facet normal -6.123234e-017 -1.000000e+000 -0.000000e+000
      outer loop
         vertex 8.444622e+001 -2.500000e-001 -1.149313e+001
         vertex 1.372500e+001 -2.500000e-001 2.696992e-015
         vertex 1.190000e+001 -2.500000e-001 2.808741e-015
      endloop
   endfacet
   facet normal -6.123234e-017 -1.000000e+000 -0.000000e+000
      outer loop
         vertex 8.444622e+001 -2.500000e-001 -1.149313e+001
         vertex 1.702500e+001 -2.500000e-001 2.494925e-015
         vertex 1.372500e+001 -2.500000e-001 2.696992e-015
      endloop
   endfacet
   facet normal -6.123234e-017 -1.000000e+000 -0.000000e+000
      outer loop
         vertex 8.444622e+001 -2.500000e-001 -1.149313e+001
         vertex 1.885000e+001 -2.500000e-001 2.383176e-015
         vertex 1.702500e+001 -2.500000e-001 2.494925e-015
      endloop
   endfacet
   facet normal -6.123234e-017 -1.000000e+000 -0.000000e+000
      outer loop
         vertex 8.444622e+001 -2.500000e-001 -1.149313e+001
         vertex 2.215000e+001 -2.500000e-001 2.181109e-015
         vertex 1.885000e+001 -2.500000e-001 2.383176e-015
      endloop
   endfacet
   facet normal -6.123234e-017 -1.000000e+000 -0.000000e+000
      outer loop
         vertex 8.444622e+001 -2.500000e-001 -1.149313e+001
         vertex 2.397500e+001 -2.500000e-001 2.069360e-015
         vertex 2.215000e+001 -2.500000e-001 2.181109e-015
      endloop
   endfacet
   facet normal -6.123234e-017 -1.000000e+000 -0.000000e+000
      outer loop
         vertex 8.444622e+001 -2.500000e-001 -1.149313e+001
         vertex 2.727500e+001 -2.500000e-001 1.867294e-015
         vertex 2.397500e+001 -2.500000e-001 2.069360e-015
      endloop
   endfacet
   facet normal -6.123234e-017 -1.000000e+000 -0.000000e+000
      outer loop
         vertex 8.444622e+001 -2.500000e-001 -1.149313e+001
         vertex 2.910000e+001 -2.500000e-001 1.755545e-015
         vertex 2.727500e+001 -2.500000e-001 1.867294e-015
      endloop
   endfacet
   facet normal -6.123234e-017 -1.000000e+000 -0.000000e+000
      outer loop
         vertex 8.444622e+001 -2.500000e-001 -1.149313e+001
         vertex 3.240000e+001 -2.500000e-001 1.553478e-015
         vertex 2.910000e+001 -2.500000e-001 1.755545e-015
      endloop
   endfacet
   facet normal -6.123234e-017 -1.000000e+000 -0.000000e+000
      outer loop
         vertex 8.444622e+001 -2.500000e-001 -1.149313e+001
         vertex 3.422500e+001 -2.500000e-001 1.441729e-015
         vertex 3.240000e+001 -2.500000e-001 1.553478e-015
      endloop
   endfacet
   facet normal -6.123234e-017 -1.000000e+000 -0.000000e+000
      outer loop
         vertex 8.444622e+001 -2.500000e-001 -1.149313e+001
         vertex 3.752500e+001 -2.500000e-001 1.239662e-015
         vertex 3.422500e+001 -2.500000e-001 1.441729e-015
      endloop
   endfacet
   facet normal -6.123234e-017 -1.000000e+000 -0.000000e+000
      outer loop
         vertex 8.444622e+001 -2.500000e-001 -1.149313e+001
         vertex 3.935000e+001 -2.500000e-001 -2.424801e-015
         vertex 3.752500e+001 -2.500000e-001 1.239662e-015
      endloop
   endfacet
   facet normal -6.123234e-017 -1.000000e+000 -0.000000e+000
      outer loop
         vertex 8.444622e+001 -2.500000e-001 -1.149313e+001
         vertex 4.265000e+001 -2.500000e-001 9.258463e-016
         vertex 3.935000e+001 -2.500000e-001 -2.424801e-015
      endloop
   endfacet
   facet normal -6.123234e-017 -1.000000e+000 -0.000000e+000
      outer loop
         vertex 8.444622e+001 -2.500000e-001 -1.149313e+001
         vertex 4.447500e+001 -2.500000e-001 -2.738616e-015
         vertex 4.265000e+001 -2.500000e-001 9.258463e-016
      endloop
   endfacet
   facet normal -6.123234e-017 -1.000000e+000 -0.000000e+000
      outer loop
         vertex 8.444622e+001 -2.500000e-001 -1.149313e+001
         vertex 4.777500e+001 -2.500000e-001 4.164744e-015
         vertex 4.447500e+001 -2.500000e-001 -2.738616e-015
      endloop
   endfacet
   facet normal -6.123234e-017 -1.000000e+000 -0.000000e+000
      outer loop
         vertex 8.444622e+001 -2.500000e-001 -1.149313e+001
         vertex 4.960000e+001 -2.500000e-001 5.002815e-016
         vertex 4.777500e+001 -2.500000e-001 4.164744e-015
      endloop
   endfacet
   facet normal -6.123234e-017 -1.000000e+000 -0.000000e+000
      outer loop
         vertex 8.444622e+001 -2.500000e-001 -1.149313e+001
         vertex 5.290000e+001 -2.500000e-001 3.850928e-015
         vertex 4.960000e+001 -2.500000e-001 5.002815e-016
      endloop
   endfacet
   facet normal -6.123234e-017 -1.000000e+000 -0.000000e+000
      outer loop
         vertex 8.444622e+001 -2.500000e-001 -1.149313e+001
         vertex 5.472500e+001 -2.500000e-001 1.864658e-016
         vertex 5.290000e+001 -2.500000e-001 3.850928e-015
      endloop
   endfacet
   facet normal -6.123234e-017 -1.000000e+000 -0.000000e+000
      outer loop
         vertex 8.444622e+001 -2.500000e-001 -1.149313e+001
         vertex 5.802500e+001 -2.500000e-001 3.537113e-015
         vertex 5.472500e+001 -2.500000e-001 1.864658e-016
      endloop
   endfacet
   facet normal -6.123234e-017 -1.000000e+000 -0.000000e+000
      outer loop
         vertex 8.444622e+001 -2.500000e-001 -1.149313e+001
         vertex 5.985000e+001 -2.500000e-001 -1.273500e-016
         vertex 5.802500e+001 -2.500000e-001 3.537113e-015
      endloop
   endfacet
   facet normal -6.123234e-017 -1.000000e+000 -0.000000e+000
      outer loop
         vertex 8.444622e+001 -2.500000e-001 -1.149313e+001
         vertex 6.315000e+001 -2.500000e-001 3.223297e-015
         vertex 5.985000e+001 -2.500000e-001 -1.273500e-016
      endloop
   endfacet
   facet normal -6.123234e-017 -1.000000e+000 -0.000000e+000
      outer loop
         vertex 8.444622e+001 -2.500000e-001 -1.149313e+001
         vertex 6.497500e+001 -2.500000e-001 -4.411657e-016
         vertex 6.315000e+001 -2.500000e-001 3.223297e-015
      endloop
   endfacet
   facet normal -6.123234e-017 -1.000000e+000 -0.000000e+000
      outer loop
         vertex 8.444622e+001 -2.500000e-001 -1.149313e+001
         vertex 6.827500e+001 -2.500000e-001 2.909481e-015
         vertex 6.497500e+001 -2.500000e-001 -4.411657e-016
      endloop
   endfacet
   facet normal -6.123234e-017 -1.000000e+000 -0.000000e+000
      outer loop
         vertex 8.444622e+001 -2.500000e-001 -1.149313e+001
         vertex 7.010000e+001 -2.500000e-001 -7.549814e-016
         vertex 6.827500e+001 -2.500000e-001 2.909481e-015
      endloop
   endfacet
   facet normal -6.123234e-017 -1.000000e+000 -0.000000e+000
      outer loop
         vertex 8.444622e+001 -2.500000e-001 -1.149313e+001
         vertex 7.340000e+001 -2.500000e-001 2.595666e-015
         vertex 7.010000e+001 -2.500000e-001 -7.549814e-016
      endloop
   endfacet
   facet normal -6.123234e-017 -1.000000e+000 -0.000000e+000
      outer loop
         vertex 8.444622e+001 -2.500000e-001 -1.149313e+001
         vertex 7.522500e+001 -2.500000e-001 2.483916e-015
         vertex 7.340000e+001 -2.500000e-001 2.595666e-015
      endloop
   endfacet
   facet normal -6.123234e-017 -1.000000e+000 -0.000000e+000
      outer loop
         vertex 8.444622e+001 -2.500000e-001 -1.149313e+001
         vertex 7.852500e+001 -2.500000e-001 2.281850e-015
         vertex 7.522500e+001 -2.500000e-001 2.483916e-015
      endloop
   endfacet
   facet normal -6.123234e-017 -1.000000e+000 -0.000000e+000
      outer loop
         vertex 8.444622e+001 -2.500000e-001 -1.149313e+001
         vertex 8.035000e+001 -2.500000e-001 2.170101e-015
         vertex 7.852500e+001 -2.500000e-001 2.281850e-015
      endloop
   endfacet
   facet normal -6.123234e-017 -1.000000e+000 -0.000000e+000
      outer loop
         vertex 8.444622e+001 -2.500000e-001 -1.149313e+001
         vertex 8.365000e+001 -2.500000e-001 1.968034e-015
         vertex 8.035000e+001 -2.500000e-001 2.170101e-015
      endloop
   endfacet
   facet normal -6.123234e-017 -1.000000e+000 -0.000000e+000
      outer loop
         vertex 8.444622e+001 -2.500000e-001 -1.149313e+001
         vertex 8.444622e+001 -2.500000e-001 1.919280e-015
         vertex 8.365000e+001 -2.500000e-001 1.968034e-015
      endloop
   endfacet
   facet normal -6.123234e-017 -1.000000e+000 -0.000000e+000
      outer loop
         vertex 8.035000e+001 -2.500000e-001 2.170101e-015
         vertex 8.365000e+001 -2.500000e-001 1.000000e+001
         vertex 8.035000e+001 -2.500000e-001 1.000000e+001
      endloop
   endfacet
   facet normal -6.123234e-017 -1.000000e+000 -0.000000e+000
      outer loop
         vertex 8.035000e+001 -2.500000e-001 2.170101e-015
         vertex 8.365000e+001 -2.500000e-001 1.968034e-015
         vertex 8.365000e+001 -2.500000e-001 1.000000e+001
      endloop
   endfacet
   facet normal -6.123234e-017 -1.000000e+000 -0.000000e+000
      outer loop
         vertex 7.522500e+001 -2.500000e-001 2.483916e-015
         vertex 7.852500e+001 -2.500000e-001 1.000000e+001
         vertex 7.522500e+001 -2.500000e-001 1.000000e+001
      endloop
   endfacet
   facet normal -6.123234e-017 -1.000000e+000 -0.000000e+000
      outer loop
         vertex 7.522500e+001 -2.500000e-001 2.483916e-015
         vertex 7.852500e+001 -2.500000e-001 2.281850e-015
         vertex 7.852500e+001 -2.500000e-001 1.000000e+001
      endloop
   endfacet
   facet normal -6.123234e-017 -1.000000e+000 -0.000000e+000
      outer loop
         vertex 7.010000e+001 -2.500000e-001 -7.549814e-016
         vertex 7.340000e+001 -2.500000e-001 1.000000e+001
         vertex 7.010000e+001 -2.500000e-001 1.000000e+001
      endloop
   endfacet
   facet normal -6.123234e-017 -1.000000e+000 -0.000000e+000
      outer loop
         vertex 7.010000e+001 -2.500000e-001 -7.549814e-016
         vertex 7.340000e+001 -2.500000e-001 2.595666e-015
         vertex 7.340000e+001 -2.500000e-001 1.000000e+001
      endloop
   endfacet
   facet normal -6.123234e-017 -1.000000e+000 -0.000000e+000
      outer loop
         vertex 6.497500e+001 -2.500000e-001 -4.411657e-016
         vertex 6.827500e+001 -2.500000e-001 1.000000e+001
         vertex 6.497500e+001 -2.500000e-001 1.000000e+001
      endloop
   endfacet
   facet normal -6.123234e-017 -1.000000e+000 -0.000000e+000
      outer loop
         vertex 6.497500e+001 -2.500000e-001 -4.411657e-016
         vertex 6.827500e+001 -2.500000e-001 2.909481e-015
         vertex 6.827500e+001 -2.500000e-001 1.000000e+001
      endloop
   endfacet
   facet normal -6.123234e-017 -1.000000e+000 -0.000000e+000
      outer loop
         vertex 5.985000e+001 -2.500000e-001 -1.273500e-016
         vertex 6.315000e+001 -2.500000e-001 1.000000e+001
         vertex 5.985000e+001 -2.500000e-001 1.000000e+001
      endloop
   endfacet
   facet normal -6.123234e-017 -1.000000e+000 -0.000000e+000
      outer loop
         vertex 5.985000e+001 -2.500000e-001 -1.273500e-016
         vertex 6.315000e+001 -2.500000e-001 3.223297e-015
         vertex 6.315000e+001 -2.500000e-001 1.000000e+001
      endloop
   endfacet
   facet normal -6.123234e-017 -1.000000e+000 -0.000000e+000
      outer loop
         vertex 5.472500e+001 -2.500000e-001 1.864658e-016
         vertex 5.802500e+001 -2.500000e-001 1.000000e+001
         vertex 5.472500e+001 -2.500000e-001 1.000000e+001
      endloop
   endfacet
   facet normal -6.123234e-017 -1.000000e+000 -0.000000e+000
      outer loop
         vertex 5.472500e+001 -2.500000e-001 1.864658e-016
         vertex 5.802500e+001 -2.500000e-001 3.537113e-015
         vertex 5.802500e+001 -2.500000e-001 1.000000e+001
      endloop
   endfacet
   facet normal -6.123234e-017 -1.000000e+000 -0.000000e+000
      outer loop
         vertex 4.960000e+001 -2.500000e-001 5.002815e-016
         vertex 5.290000e+001 -2.500000e-001 1.000000e+001
         vertex 4.960000e+001 -2.500000e-001 1.000000e+001
      endloop
   endfacet
   facet normal -6.123234e-017 -1.000000e+000 -0.000000e+000
      outer loop
         vertex 4.960000e+001 -2.500000e-001 5.002815e-016
         vertex 5.290000e+001 -2.500000e-001 3.850928e-015
         vertex 5.290000e+001 -2.500000e-001 1.000000e+001
      endloop
   endfacet
   facet normal -6.123234e-017 -1.000000e+000 -0.000000e+000
      outer loop
         vertex 4.447500e+001 -2.500000e-001 -2.738616e-015
         vertex 4.777500e+001 -2.500000e-001 1.000000e+001
         vertex 4.447500e+001 -2.500000e-001 1.000000e+001
      endloop
   endfacet
   facet normal -6.123234e-017 -1.000000e+000 -0.000000e+000
      outer loop
         vertex 4.447500e+001 -2.500000e-001 -2.738616e-015
         vertex 4.777500e+001 -2.500000e-001 4.164744e-015
         vertex 4.777500e+001 -2.500000e-001 1.000000e+001
      endloop
   endfacet
   facet normal -6.123234e-017 -1.000000e+000 -0.000000e+000
      outer loop
         vertex 3.935000e+001 -2.500000e-001 -2.424801e-015
         vertex 4.265000e+001 -2.500000e-001 1.000000e+001
         vertex 3.935000e+001 -2.500000e-001 1.000000e+001
      endloop
   endfacet
   facet normal -6.123234e-017 -1.000000e+000 -0.000000e+000
      outer loop
         vertex 3.935000e+001 -2.500000e-001 -2.424801e-015
         vertex 4.265000e+001 -2.500000e-001 9.258463e-016
         vertex 4.265000e+001 -2.500000e-001 1.000000e+001
      endloop
   endfacet
   facet normal -6.123234e-017 -1.000000e+000 -0.000000e+000
      outer loop
         vertex 3.422500e+001 -2.500000e-001 1.441729e-015
         vertex 3.752500e+001 -2.500000e-001 1.000000e+001
         vertex 3.422500e+001 -2.500000e-001 1.000000e+001
      endloop
   endfacet
   facet normal -6.123234e-017 -1.000000e+000 -0.000000e+000
      outer loop
         vertex 3.422500e+001 -2.500000e-001 1.441729e-015
         vertex 3.752500e+001 -2.500000e-001 1.239662e-015
         vertex 3.752500e+001 -2.500000e-001 1.000000e+001
      endloop
   endfacet
   facet normal -6.123234e-017 -1.000000e+000 -0.000000e+000
      outer loop
         vertex 2.910000e+001 -2.500000e-001 1.755545e-015
         vertex 3.240000e+001 -2.500000e-001 1.000000e+001
         vertex 2.910000e+001 -2.500000e-001 1.000000e+001
      endloop
   endfacet
   facet normal -6.123234e-017 -1.000000e+000 -0.000000e+000
      outer loop
         vertex 2.910000e+001 -2.500000e-001 1.755545e-015
         vertex 3.240000e+001 -2.500000e-001 1.553478e-015
         vertex 3.240000e+001 -2.500000e-001 1.000000e+001
      endloop
   endfacet
   facet normal -6.123234e-017 -1.000000e+000 -0.000000e+000
      outer loop
         vertex 2.397500e+001 -2.500000e-001 2.069360e-015
         vertex 2.727500e+001 -2.500000e-001 1.000000e+001
         vertex 2.397500e+001 -2.500000e-001 1.000000e+001
      endloop
   endfacet
   facet normal -6.123234e-017 -1.000000e+000 -0.000000e+000
      outer loop
         vertex 2.397500e+001 -2.500000e-001 2.069360e-015
         vertex 2.727500e+001 -2.500000e-001 1.867294e-015
         vertex 2.727500e+001 -2.500000e-001 1.000000e+001
      endloop
   endfacet
   facet normal -6.123234e-017 -1.000000e+000 -0.000000e+000
      outer loop
         vertex 1.885000e+001 -2.500000e-001 2.383176e-015
         vertex 2.215000e+001 -2.500000e-001 1.000000e+001
         vertex 1.885000e+001 -2.500000e-001 1.000000e+001
      endloop
   endfacet
   facet normal -6.123234e-017 -1.000000e+000 -0.000000e+000
      outer loop
         vertex 1.885000e+001 -2.500000e-001 2.383176e-015
         vertex 2.215000e+001 -2.500000e-001 2.181109e-015
         vertex 2.215000e+001 -2.500000e-001 1.000000e+001
      endloop
   endfacet
   facet normal -6.123234e-017 -1.000000e+000 -0.000000e+000
      outer loop
         vertex 1.372500e+001 -2.500000e-001 2.696992e-015
         vertex 1.702500e+001 -2.500000e-001 1.000000e+001
         vertex 1.372500e+001 -2.500000e-001 1.000000e+001
      endloop
   endfacet
   facet normal -6.123234e-017 -1.000000e+000 -0.000000e+000
      outer loop
         vertex 1.372500e+001 -2.500000e-001 2.696992e-015
         vertex 1.702500e+001 -2.500000e-001 2.494925e-015
         vertex 1.702500e+001 -2.500000e-001 1.000000e+001
      endloop
   endfacet
   facet normal -6.123234e-017 -1.000000e+000 -0.000000e+000
      outer loop
         vertex 8.600000e+000 -2.500000e-001 -5.419062e-016
         vertex 1.190000e+001 -2.500000e-001 1.000000e+001
         vertex 8.600000e+000 -2.500000e-001 1.000000e+001
      endloop
   endfacet
   facet normal -6.123234e-017 -1.000000e+000 -0.000000e+000
      outer loop
         vertex 8.600000e+000 -2.500000e-001 -5.419062e-016
         vertex 1.190000e+001 -2.500000e-001 2.808741e-015
         vertex 1.190000e+001 -2.500000e-001 1.000000e+001
      endloop
   endfacet
   facet normal -6.123234e-017 -1.000000e+000 -0.000000e+000
      outer loop
         vertex 3.475000e+000 -2.500000e-001 -2.280905e-016
         vertex 6.775000e+000 -2.500000e-001 1.000000e+001
         vertex 3.475000e+000 -2.500000e-001 1.000000e+001
      endloop
   endfacet
   facet normal -6.123234e-017 -1.000000e+000 -0.000000e+000
      outer loop
         vertex 3.475000e+000 -2.500000e-001 -2.280905e-016
         vertex 6.775000e+000 -2.500000e-001 3.122556e-015
         vertex 6.775000e+000 -2.500000e-001 1.000000e+001
      endloop
   endfacet
   facet normal -6.123234e-017 -1.000000e+000 -0.000000e+000
      outer loop
         vertex 2.504893e+000 -2.500000e-001 -1.493128e+000
         vertex 3.475000e+000 -2.500000e-001 -2.280905e-016
         vertex 2.504893e+000 -2.500000e-001 3.384025e-015
      endloop
   endfacet
   facet normal -6.123234e-017 -1.000000e+000 -0.000000e+000
      outer loop
         vertex 2.504893e+000 -2.500000e-001 -1.493128e+000
         vertex 2.504893e+000 -2.500000e-001 -1.149313e+001
         vertex 3.475000e+000 -2.500000e-001 -2.280905e-016
      endloop
   endfacet
   facet normal -6.123234e-017 -1.000000e+000 -0.000000e+000
      outer loop
         vertex 8.450489e+001 -2.500000e-001 -1.149313e+001
         vertex 8.444622e+001 -2.500000e-001 1.919280e-015
         vertex 8.444622e+001 -2.500000e-001 -1.149313e+001
      endloop
   endfacet
   facet normal -6.123234e-017 -1.000000e+000 -0.000000e+000
      outer loop
         vertex 8.450489e+001 -2.500000e-001 -1.149313e+001
         vertex 8.450489e+001 -2.500000e-001 1.915687e-015
         vertex 8.444622e+001 -2.500000e-001 1.919280e-015
      endloop
   endfacet
   facet normal -6.123234e-017 -1.000000e+000 -0.000000e+000
      outer loop
         vertex 8.450489e+001 -2.500000e-001 -1.149313e+001
         vertex 8.450489e+001 -2.500000e-001 -1.493128e+000
         vertex 8.450489e+001 -2.500000e-001 1.915687e-015
      endloop
   endfacet
endsolid
