solid Gel Comb rev 2
   facet normal 0.000000e+000 0.000000e+000 1.000000e+000
      outer loop
         vertex 2.504893e+000 7.500000e-001 -1.493128e+000
         vertex 8.450489e+001 7.500000e-001 -1.493128e+000
         vertex 8.450489e+001 1.250000e+000 -1.493128e+000
      endloop
   endfacet
   facet normal 0.000000e+000 0.000000e+000 1.000000e+000
      outer loop
         vertex 2.504893e+000 7.500000e-001 -1.493128e+000
         vertex 8.450489e+001 1.250000e+000 -1.493128e+000
         vertex 2.504893e+000 1.250000e+000 -1.493128e+000
      endloop
   endfacet
   facet normal 0.000000e+000 0.000000e+000 -1.000000e+000
      outer loop
         vertex 2.504893e+000 1.250000e+000 -1.149313e+001
         vertex 8.450489e+001 1.250000e+000 -1.149313e+001
         vertex 8.450489e+001 -7.500000e-001 -1.149313e+001
      endloop
   endfacet
   facet normal 0.000000e+000 0.000000e+000 -1.000000e+000
      outer loop
         vertex 2.504893e+000 1.250000e+000 -1.149313e+001
         vertex 8.450489e+001 -7.500000e-001 -1.149313e+001
         vertex 2.504893e+000 -7.500000e-001 -1.149313e+001
      endloop
   endfacet
   facet normal -1.000000e+000 1.224647e-016 0.000000e+000
      outer loop
         vertex 2.504893e+000 1.250000e+000 -1.493128e+000
         vertex 2.504893e+000 1.250000e+000 -1.149313e+001
         vertex 2.504893e+000 -7.500000e-001 -1.149313e+001
      endloop
   endfacet
   facet normal -1.000000e+000 1.224647e-016 0.000000e+000
      outer loop
         vertex 2.504893e+000 1.250000e+000 -1.493128e+000
         vertex 2.504893e+000 -7.500000e-001 -1.149313e+001
         vertex 2.504893e+000 -7.500000e-001 -1.493128e+000
      endloop
   endfacet
   facet normal -1.000000e+000 1.224647e-016 0.000000e+000
      outer loop
         vertex 2.504893e+000 1.250000e+000 -1.493128e+000
         vertex 2.504893e+000 7.500000e-001 -1.493128e+000
         vertex 2.504893e+000 -7.500000e-001 -1.493128e+000
      endloop
   endfacet
   facet normal -1.836970e-016 -1.000000e+000 0.000000e+000
      outer loop
         vertex 2.504893e+000 -7.500000e-001 -1.493128e+000
         vertex 2.504893e+000 -7.500000e-001 -1.149313e+001
         vertex 8.450489e+001 -7.500000e-001 -1.149313e+001
      endloop
   endfacet
   facet normal -1.836970e-016 -1.000000e+000 0.000000e+000
      outer loop
         vertex 2.504893e+000 -7.500000e-001 -1.493128e+000
         vertex 8.450489e+001 -7.500000e-001 -1.149313e+001
         vertex 8.450489e+001 -7.500000e-001 -1.493128e+000
      endloop
   endfacet
   facet normal 1.000000e+000 -6.125742e-017 0.000000e+000
      outer loop
         vertex 8.450489e+001 -7.500000e-001 -1.493128e+000
         vertex 8.450489e+001 -7.500000e-001 -1.149313e+001
         vertex 8.450489e+001 1.250000e+000 -1.149313e+001
      endloop
   endfacet
   facet normal 1.000000e+000 -6.125742e-017 0.000000e+000
      outer loop
         vertex 8.450489e+001 -7.500000e-001 -1.493128e+000
         vertex 8.450489e+001 1.250000e+000 -1.149313e+001
         vertex 8.450489e+001 1.250000e+000 -1.493128e+000
      endloop
   endfacet
   facet normal 1.000000e+000 -6.125742e-017 0.000000e+000
      outer loop
         vertex 8.450489e+001 -7.500000e-001 -1.493128e+000
         vertex 8.450489e+001 7.500000e-001 -1.493128e+000
         vertex 8.450489e+001 1.250000e+000 -1.493128e+000
      endloop
   endfacet
   facet normal 6.123234e-017 1.000000e+000 0.000000e+000
      outer loop
         vertex 8.450489e+001 1.250000e+000 -1.493128e+000
         vertex 8.450489e+001 1.250000e+000 -1.149313e+001
         vertex 2.504893e+000 1.250000e+000 -1.149313e+001
      endloop
   endfacet
   facet normal 6.123234e-017 1.000000e+000 0.000000e+000
      outer loop
         vertex 8.450489e+001 1.250000e+000 -1.493128e+000
         vertex 2.504893e+000 1.250000e+000 -1.149313e+001
         vertex 2.504893e+000 1.250000e+000 -1.493128e+000
      endloop
   endfacet
   facet normal 0.000000e+000 0.000000e+000 1.000000e+000
      outer loop
         vertex 8.365000e+001 7.500000e-001 -7.149052e-031
         vertex 8.365000e+001 -7.500000e-001 -2.529283e-016
         vertex 8.450489e+001 -7.500000e-001 -8.997945e-031
      endloop
   endfacet
   facet normal 0.000000e+000 0.000000e+000 1.000000e+000
      outer loop
         vertex 8.365000e+001 7.500000e-001 -7.149052e-031
         vertex 8.450489e+001 -7.500000e-001 -8.997945e-031
         vertex 8.450489e+001 7.500000e-001 0.000000e+000
      endloop
   endfacet
   facet normal 0.000000e+000 0.000000e+000 1.000000e+000
      outer loop
         vertex 8.035000e+001 -7.500000e-001 4.356255e-018
         vertex 8.035000e+001 7.500000e-001 3.172035e-016
         vertex 7.852500e+001 7.500000e-001 -7.149052e-031
      endloop
   endfacet
   facet normal 0.000000e+000 0.000000e+000 1.000000e+000
      outer loop
         vertex 8.035000e+001 -7.500000e-001 4.356255e-018
         vertex 7.852500e+001 7.500000e-001 -7.149052e-031
         vertex 7.852500e+001 -7.500000e-001 -5.667441e-016
      endloop
   endfacet
   facet normal 0.000000e+000 0.000000e+000 1.000000e+000
      outer loop
         vertex 7.522500e+001 -7.500000e-001 9.729633e-018
         vertex 7.522500e+001 7.500000e-001 6.310192e-016
         vertex 7.340000e+001 7.500000e-001 -7.149052e-031
      endloop
   endfacet
   facet normal 0.000000e+000 0.000000e+000 1.000000e+000
      outer loop
         vertex 7.522500e+001 -7.500000e-001 9.729633e-018
         vertex 7.340000e+001 7.500000e-001 -7.149052e-031
         vertex 7.340000e+001 -7.500000e-001 -8.805598e-016
      endloop
   endfacet
   facet normal 0.000000e+000 0.000000e+000 1.000000e+000
      outer loop
         vertex 7.010000e+001 -7.500000e-001 1.510301e-017
         vertex 7.010000e+001 7.500000e-001 -8.315219e-016
         vertex 6.827500e+001 7.500000e-001 7.395571e-032
      endloop
   endfacet
   facet normal 0.000000e+000 0.000000e+000 1.000000e+000
      outer loop
         vertex 7.010000e+001 -7.500000e-001 1.510301e-017
         vertex 6.827500e+001 7.500000e-001 7.395571e-032
         vertex 6.827500e+001 -7.500000e-001 5.819813e-016
      endloop
   endfacet
   facet normal 0.000000e+000 0.000000e+000 1.000000e+000
      outer loop
         vertex 6.497500e+001 -7.500000e-001 2.047639e-017
         vertex 6.497500e+001 7.500000e-001 -5.177061e-016
         vertex 6.315000e+001 7.500000e-001 -7.149052e-031
      endloop
   endfacet
   facet normal 0.000000e+000 0.000000e+000 1.000000e+000
      outer loop
         vertex 6.497500e+001 -7.500000e-001 2.047639e-017
         vertex 6.315000e+001 7.500000e-001 -7.149052e-031
         vertex 6.315000e+001 -7.500000e-001 2.681655e-016
      endloop
   endfacet
   facet normal 0.000000e+000 0.000000e+000 1.000000e+000
      outer loop
         vertex 5.985000e+001 -7.500000e-001 2.584976e-017
         vertex 5.985000e+001 7.500000e-001 -2.038904e-016
         vertex 5.802500e+001 7.500000e-001 -3.204747e-031
      endloop
   endfacet
   facet normal 0.000000e+000 0.000000e+000 1.000000e+000
      outer loop
         vertex 5.985000e+001 -7.500000e-001 2.584976e-017
         vertex 5.802500e+001 7.500000e-001 -3.204747e-031
         vertex 5.802500e+001 -7.500000e-001 -4.565022e-017
      endloop
   endfacet
   facet normal 0.000000e+000 0.000000e+000 1.000000e+000
      outer loop
         vertex 5.472500e+001 -7.500000e-001 3.122314e-017
         vertex 5.472500e+001 7.500000e-001 1.099254e-016
         vertex 5.290000e+001 7.500000e-001 -7.149052e-031
      endloop
   endfacet
   facet normal 0.000000e+000 0.000000e+000 1.000000e+000
      outer loop
         vertex 5.472500e+001 -7.500000e-001 3.122314e-017
         vertex 5.290000e+001 7.500000e-001 -7.149052e-031
         vertex 5.290000e+001 -7.500000e-001 -3.594660e-016
      endloop
   endfacet
   facet normal 0.000000e+000 0.000000e+000 1.000000e+000
      outer loop
         vertex 4.960000e+001 -7.500000e-001 3.659652e-017
         vertex 4.960000e+001 7.500000e-001 4.237411e-016
         vertex 4.777500e+001 7.500000e-001 -7.149052e-031
      endloop
   endfacet
   facet normal 0.000000e+000 0.000000e+000 1.000000e+000
      outer loop
         vertex 4.960000e+001 -7.500000e-001 3.659652e-017
         vertex 4.777500e+001 7.500000e-001 -7.149052e-031
         vertex 4.777500e+001 -7.500000e-001 -6.732817e-016
      endloop
   endfacet
   facet normal 0.000000e+000 0.000000e+000 1.000000e+000
      outer loop
         vertex 4.447500e+001 -7.500000e-001 4.196990e-017
         vertex 4.447500e+001 7.500000e-001 7.375568e-016
         vertex 4.265000e+001 7.500000e-001 -7.149052e-031
      endloop
   endfacet
   facet normal 0.000000e+000 0.000000e+000 1.000000e+000
      outer loop
         vertex 4.447500e+001 -7.500000e-001 4.196990e-017
         vertex 4.265000e+001 7.500000e-001 -7.149052e-031
         vertex 4.265000e+001 -7.500000e-001 7.892594e-016
      endloop
   endfacet
   facet normal 0.000000e+000 0.000000e+000 1.000000e+000
      outer loop
         vertex 3.935000e+001 -7.500000e-001 4.734327e-017
         vertex 3.935000e+001 7.500000e-001 -7.249842e-016
         vertex 3.752500e+001 7.500000e-001 -7.149052e-031
      endloop
   endfacet
   facet normal 0.000000e+000 0.000000e+000 1.000000e+000
      outer loop
         vertex 3.935000e+001 -7.500000e-001 4.734327e-017
         vertex 3.752500e+001 7.500000e-001 -7.149052e-031
         vertex 3.752500e+001 -7.500000e-001 4.754437e-016
      endloop
   endfacet
   facet normal 0.000000e+000 0.000000e+000 1.000000e+000
      outer loop
         vertex 3.422500e+001 -7.500000e-001 5.271665e-017
         vertex 3.422500e+001 7.500000e-001 -4.111685e-016
         vertex 3.240000e+001 7.500000e-001 -3.204747e-031
      endloop
   endfacet
   facet normal 0.000000e+000 0.000000e+000 1.000000e+000
      outer loop
         vertex 3.422500e+001 -7.500000e-001 5.271665e-017
         vertex 3.240000e+001 7.500000e-001 -3.204747e-031
         vertex 3.240000e+001 -7.500000e-001 1.616279e-016
      endloop
   endfacet
   facet normal 0.000000e+000 0.000000e+000 1.000000e+000
      outer loop
         vertex 2.910000e+001 -7.500000e-001 5.809003e-017
         vertex 2.910000e+001 7.500000e-001 -9.735276e-017
         vertex 2.727500e+001 7.500000e-001 7.395571e-032
      endloop
   endfacet
   facet normal 0.000000e+000 0.000000e+000 1.000000e+000
      outer loop
         vertex 2.910000e+001 -7.500000e-001 5.809003e-017
         vertex 2.727500e+001 7.500000e-001 7.395571e-032
         vertex 2.727500e+001 -7.500000e-001 -1.521878e-016
      endloop
   endfacet
   facet normal 0.000000e+000 0.000000e+000 1.000000e+000
      outer loop
         vertex 2.397500e+001 -7.500000e-001 6.346341e-017
         vertex 2.397500e+001 7.500000e-001 2.164630e-016
         vertex 2.215000e+001 7.500000e-001 -1.232595e-031
      endloop
   endfacet
   facet normal 0.000000e+000 0.000000e+000 1.000000e+000
      outer loop
         vertex 2.397500e+001 -7.500000e-001 6.346341e-017
         vertex 2.215000e+001 7.500000e-001 -1.232595e-031
         vertex 2.215000e+001 -7.500000e-001 -4.660036e-016
      endloop
   endfacet
   facet normal 0.000000e+000 0.000000e+000 1.000000e+000
      outer loop
         vertex 1.885000e+001 -7.500000e-001 6.883678e-017
         vertex 1.885000e+001 7.500000e-001 5.302787e-016
         vertex 1.702500e+001 7.500000e-001 -1.232595e-031
      endloop
   endfacet
   facet normal 0.000000e+000 0.000000e+000 1.000000e+000
      outer loop
         vertex 1.885000e+001 -7.500000e-001 6.883678e-017
         vertex 1.702500e+001 7.500000e-001 -1.232595e-031
         vertex 1.702500e+001 -7.500000e-001 -7.798193e-016
      endloop
   endfacet
   facet normal 0.000000e+000 0.000000e+000 1.000000e+000
      outer loop
         vertex 1.372500e+001 -7.500000e-001 7.421016e-017
         vertex 1.372500e+001 7.500000e-001 -9.322624e-016
         vertex 1.190000e+001 7.500000e-001 -1.232595e-031
      endloop
   endfacet
   facet normal 0.000000e+000 0.000000e+000 1.000000e+000
      outer loop
         vertex 1.372500e+001 -7.500000e-001 7.421016e-017
         vertex 1.190000e+001 7.500000e-001 -1.232595e-031
         vertex 1.190000e+001 -7.500000e-001 6.827218e-016
      endloop
   endfacet
   facet normal 0.000000e+000 0.000000e+000 1.000000e+000
      outer loop
         vertex 2.504893e+000 -7.500000e-001 -2.465190e-032
         vertex 3.475000e+000 -7.500000e-001 8.495691e-017
         vertex 3.475000e+000 7.500000e-001 -3.046309e-016
      endloop
   endfacet
   facet normal 0.000000e+000 0.000000e+000 1.000000e+000
      outer loop
         vertex 2.504893e+000 -7.500000e-001 -2.465190e-032
         vertex 3.475000e+000 7.500000e-001 -3.046309e-016
         vertex 2.504893e+000 7.500000e-001 0.000000e+000
      endloop
   endfacet
   facet normal 0.000000e+000 0.000000e+000 1.000000e+000
      outer loop
         vertex 8.600000e+000 -7.500000e-001 7.958354e-017
         vertex 8.600000e+000 7.500000e-001 -6.184466e-016
         vertex 6.775000e+000 7.500000e-001 -7.395571e-032
      endloop
   endfacet
   facet normal 0.000000e+000 0.000000e+000 1.000000e+000
      outer loop
         vertex 8.600000e+000 -7.500000e-001 7.958354e-017
         vertex 6.775000e+000 7.500000e-001 -7.395571e-032
         vertex 6.775000e+000 -7.500000e-001 3.689060e-016
      endloop
   endfacet
   facet normal -1.000000e+000 1.224647e-016 0.000000e+000
      outer loop
         vertex 2.504893e+000 7.500000e-001 1.917379e-017
         vertex 2.504893e+000 7.500000e-001 -1.493128e+000
         vertex 2.504893e+000 -7.500000e-001 -1.493128e+000
      endloop
   endfacet
   facet normal -1.000000e+000 1.224647e-016 0.000000e+000
      outer loop
         vertex 2.504893e+000 7.500000e-001 1.917379e-017
         vertex 2.504893e+000 -7.500000e-001 -1.493128e+000
         vertex 2.504893e+000 -7.500000e-001 -2.465190e-032
      endloop
   endfacet
   facet normal -1.836970e-016 -1.000000e+000 0.000000e+000
      outer loop
         vertex 2.504893e+000 -7.500000e-001 8.597404e-017
         vertex 2.504893e+000 -7.500000e-001 -1.493128e+000
         vertex 8.450489e+001 -7.500000e-001 -1.493128e+000
      endloop
   endfacet
   facet normal -1.836970e-016 -1.000000e+000 0.000000e+000
      outer loop
         vertex 2.504893e+000 -7.500000e-001 8.597404e-017
         vertex 8.450489e+001 -7.500000e-001 -1.493128e+000
         vertex 8.450489e+001 -7.500000e-001 -8.997945e-031
      endloop
   endfacet
   facet normal -1.836970e-016 -1.000000e+000 0.000000e+000
      outer loop
         vertex 2.504893e+000 -7.500000e-001 8.597404e-017
         vertex 8.450489e+001 -7.500000e-001 -8.997945e-031
         vertex 8.365000e+001 -7.500000e-001 8.963246e-019
      endloop
   endfacet
   facet normal -1.836970e-016 -1.000000e+000 0.000000e+000
      outer loop
         vertex 2.504893e+000 -7.500000e-001 8.597404e-017
         vertex 8.035000e+001 -7.500000e-001 4.356255e-018
         vertex 8.365000e+001 -7.500000e-001 8.963246e-019
      endloop
   endfacet
   facet normal -1.836970e-016 -1.000000e+000 0.000000e+000
      outer loop
         vertex 2.504893e+000 -7.500000e-001 8.597404e-017
         vertex 8.035000e+001 -7.500000e-001 4.356255e-018
         vertex 7.852500e+001 -7.500000e-001 6.269702e-018
      endloop
   endfacet
   facet normal -1.836970e-016 -1.000000e+000 0.000000e+000
      outer loop
         vertex 2.504893e+000 -7.500000e-001 8.597404e-017
         vertex 7.852500e+001 -7.500000e-001 6.269702e-018
         vertex 7.522500e+001 -7.500000e-001 9.729633e-018
      endloop
   endfacet
   facet normal -1.836970e-016 -1.000000e+000 0.000000e+000
      outer loop
         vertex 2.504893e+000 -7.500000e-001 8.597404e-017
         vertex 7.522500e+001 -7.500000e-001 9.729633e-018
         vertex 7.340000e+001 -7.500000e-001 1.164308e-017
      endloop
   endfacet
   facet normal -1.836970e-016 -1.000000e+000 0.000000e+000
      outer loop
         vertex 2.504893e+000 -7.500000e-001 8.597404e-017
         vertex 7.340000e+001 -7.500000e-001 1.164308e-017
         vertex 7.010000e+001 -7.500000e-001 1.510301e-017
      endloop
   endfacet
   facet normal -1.836970e-016 -1.000000e+000 0.000000e+000
      outer loop
         vertex 2.504893e+000 -7.500000e-001 8.597404e-017
         vertex 6.827500e+001 -7.500000e-001 1.701646e-017
         vertex 7.010000e+001 -7.500000e-001 1.510301e-017
      endloop
   endfacet
   facet normal -1.836970e-016 -1.000000e+000 0.000000e+000
      outer loop
         vertex 2.504893e+000 -7.500000e-001 8.597404e-017
         vertex 6.827500e+001 -7.500000e-001 1.701646e-017
         vertex 6.497500e+001 -7.500000e-001 2.047639e-017
      endloop
   endfacet
   facet normal -1.836970e-016 -1.000000e+000 0.000000e+000
      outer loop
         vertex 2.504893e+000 -7.500000e-001 8.597404e-017
         vertex 6.315000e+001 -7.500000e-001 2.238983e-017
         vertex 6.497500e+001 -7.500000e-001 2.047639e-017
      endloop
   endfacet
   facet normal -1.836970e-016 -1.000000e+000 0.000000e+000
      outer loop
         vertex 2.504893e+000 -7.500000e-001 8.597404e-017
         vertex 6.315000e+001 -7.500000e-001 2.238983e-017
         vertex 5.985000e+001 -7.500000e-001 2.584976e-017
      endloop
   endfacet
   facet normal -1.836970e-016 -1.000000e+000 0.000000e+000
      outer loop
         vertex 2.504893e+000 -7.500000e-001 8.597404e-017
         vertex 5.985000e+001 -7.500000e-001 2.584976e-017
         vertex 5.802500e+001 -7.500000e-001 2.776321e-017
      endloop
   endfacet
   facet normal -1.836970e-016 -1.000000e+000 0.000000e+000
      outer loop
         vertex 2.504893e+000 -7.500000e-001 8.597404e-017
         vertex 5.472500e+001 -7.500000e-001 3.122314e-017
         vertex 5.802500e+001 -7.500000e-001 2.776321e-017
      endloop
   endfacet
   facet normal -1.836970e-016 -1.000000e+000 0.000000e+000
      outer loop
         vertex 2.504893e+000 -7.500000e-001 8.597404e-017
         vertex 5.472500e+001 -7.500000e-001 3.122314e-017
         vertex 5.290000e+001 -7.500000e-001 3.313659e-017
      endloop
   endfacet
   facet normal -1.836970e-016 -1.000000e+000 0.000000e+000
      outer loop
         vertex 2.504893e+000 -7.500000e-001 8.597404e-017
         vertex 5.290000e+001 -7.500000e-001 3.313659e-017
         vertex 4.960000e+001 -7.500000e-001 3.659652e-017
      endloop
   endfacet
   facet normal -1.836970e-016 -1.000000e+000 0.000000e+000
      outer loop
         vertex 2.504893e+000 -7.500000e-001 8.597404e-017
         vertex 4.777500e+001 -7.500000e-001 3.850997e-017
         vertex 4.960000e+001 -7.500000e-001 3.659652e-017
      endloop
   endfacet
   facet normal -1.836970e-016 -1.000000e+000 0.000000e+000
      outer loop
         vertex 2.504893e+000 -7.500000e-001 8.597404e-017
         vertex 4.777500e+001 -7.500000e-001 3.850997e-017
         vertex 4.447500e+001 -7.500000e-001 4.196990e-017
      endloop
   endfacet
   facet normal -1.836970e-016 -1.000000e+000 0.000000e+000
      outer loop
         vertex 2.504893e+000 -7.500000e-001 8.597404e-017
         vertex 4.265000e+001 -7.500000e-001 4.388334e-017
         vertex 4.447500e+001 -7.500000e-001 4.196990e-017
      endloop
   endfacet
   facet normal -1.836970e-016 -1.000000e+000 0.000000e+000
      outer loop
         vertex 2.504893e+000 -7.500000e-001 8.597404e-017
         vertex 3.935000e+001 -7.500000e-001 4.734327e-017
         vertex 4.265000e+001 -7.500000e-001 4.388334e-017
      endloop
   endfacet
   facet normal -1.836970e-016 -1.000000e+000 0.000000e+000
      outer loop
         vertex 2.504893e+000 -7.500000e-001 8.597404e-017
         vertex 3.935000e+001 -7.500000e-001 4.734327e-017
         vertex 3.752500e+001 -7.500000e-001 4.925672e-017
      endloop
   endfacet
   facet normal -1.836970e-016 -1.000000e+000 0.000000e+000
      outer loop
         vertex 2.504893e+000 -7.500000e-001 8.597404e-017
         vertex 3.422500e+001 -7.500000e-001 5.271665e-017
         vertex 3.752500e+001 -7.500000e-001 4.925672e-017
      endloop
   endfacet
   facet normal -1.836970e-016 -1.000000e+000 0.000000e+000
      outer loop
         vertex 2.504893e+000 -7.500000e-001 8.597404e-017
         vertex 3.422500e+001 -7.500000e-001 5.271665e-017
         vertex 3.240000e+001 -7.500000e-001 5.463010e-017
      endloop
   endfacet
   facet normal -1.836970e-016 -1.000000e+000 0.000000e+000
      outer loop
         vertex 2.504893e+000 -7.500000e-001 8.597404e-017
         vertex 2.910000e+001 -7.500000e-001 5.809003e-017
         vertex 3.240000e+001 -7.500000e-001 5.463010e-017
      endloop
   endfacet
   facet normal -1.836970e-016 -1.000000e+000 0.000000e+000
      outer loop
         vertex 2.504893e+000 -7.500000e-001 8.597404e-017
         vertex 2.727500e+001 -7.500000e-001 6.000347e-017
         vertex 2.910000e+001 -7.500000e-001 5.809003e-017
      endloop
   endfacet
   facet normal -1.836970e-016 -1.000000e+000 0.000000e+000
      outer loop
         vertex 2.504893e+000 -7.500000e-001 8.597404e-017
         vertex 2.397500e+001 -7.500000e-001 6.346341e-017
         vertex 2.727500e+001 -7.500000e-001 6.000347e-017
      endloop
   endfacet
   facet normal -1.836970e-016 -1.000000e+000 0.000000e+000
      outer loop
         vertex 2.504893e+000 -7.500000e-001 8.597404e-017
         vertex 2.397500e+001 -7.500000e-001 6.346341e-017
         vertex 2.215000e+001 -7.500000e-001 6.537685e-017
      endloop
   endfacet
   facet normal -1.836970e-016 -1.000000e+000 0.000000e+000
      outer loop
         vertex 2.504893e+000 -7.500000e-001 8.597404e-017
         vertex 2.215000e+001 -7.500000e-001 6.537685e-017
         vertex 1.885000e+001 -7.500000e-001 6.883678e-017
      endloop
   endfacet
   facet normal -1.836970e-016 -1.000000e+000 0.000000e+000
      outer loop
         vertex 2.504893e+000 -7.500000e-001 8.597404e-017
         vertex 1.885000e+001 -7.500000e-001 6.883678e-017
         vertex 1.702500e+001 -7.500000e-001 7.075023e-017
      endloop
   endfacet
   facet normal -1.836970e-016 -1.000000e+000 0.000000e+000
      outer loop
         vertex 2.504893e+000 -7.500000e-001 8.597404e-017
         vertex 1.372500e+001 -7.500000e-001 7.421016e-017
         vertex 1.702500e+001 -7.500000e-001 7.075023e-017
      endloop
   endfacet
   facet normal -1.836970e-016 -1.000000e+000 0.000000e+000
      outer loop
         vertex 2.504893e+000 -7.500000e-001 8.597404e-017
         vertex 1.372500e+001 -7.500000e-001 7.421016e-017
         vertex 1.190000e+001 -7.500000e-001 7.612361e-017
      endloop
   endfacet
   facet normal -1.836970e-016 -1.000000e+000 0.000000e+000
      outer loop
         vertex 2.504893e+000 -7.500000e-001 8.597404e-017
         vertex 8.600000e+000 -7.500000e-001 7.958354e-017
         vertex 1.190000e+001 -7.500000e-001 7.612361e-017
      endloop
   endfacet
   facet normal -1.836970e-016 -1.000000e+000 0.000000e+000
      outer loop
         vertex 2.504893e+000 -7.500000e-001 8.597404e-017
         vertex 8.600000e+000 -7.500000e-001 7.958354e-017
         vertex 6.775000e+000 -7.500000e-001 8.149698e-017
      endloop
   endfacet
   facet normal -1.836970e-016 -1.000000e+000 0.000000e+000
      outer loop
         vertex 2.504893e+000 -7.500000e-001 8.597404e-017
         vertex 3.475000e+000 -7.500000e-001 8.495691e-017
         vertex 6.775000e+000 -7.500000e-001 8.149698e-017
      endloop
   endfacet
   facet normal 1.000000e+000 -6.125742e-017 0.000000e+000
      outer loop
         vertex 8.450489e+001 -7.500000e-001 -1.837346e-016
         vertex 8.450489e+001 -7.500000e-001 -1.493128e+000
         vertex 8.450489e+001 7.500000e-001 -1.493128e+000
      endloop
   endfacet
   facet normal 1.000000e+000 -6.125742e-017 0.000000e+000
      outer loop
         vertex 8.450489e+001 -7.500000e-001 -1.837346e-016
         vertex 8.450489e+001 7.500000e-001 -1.493128e+000
         vertex 8.450489e+001 7.500000e-001 0.000000e+000
      endloop
   endfacet
   facet normal 6.123234e-017 1.000000e+000 0.000000e+000
      outer loop
         vertex 8.450489e+001 7.500000e-001 7.395571e-032
         vertex 8.450489e+001 7.500000e-001 -1.493128e+000
         vertex 2.504893e+000 7.500000e-001 -1.493128e+000
      endloop
   endfacet
   facet normal 6.123234e-017 1.000000e+000 0.000000e+000
      outer loop
         vertex 8.450489e+001 7.500000e-001 7.395571e-032
         vertex 2.504893e+000 7.500000e-001 -1.493128e+000
         vertex 2.504893e+000 7.500000e-001 0.000000e+000
      endloop
   endfacet
   facet normal 6.123234e-017 1.000000e+000 0.000000e+000
      outer loop
         vertex 8.450489e+001 7.500000e-001 7.395571e-032
         vertex 3.475000e+000 7.500000e-001 0.000000e+000
         vertex 2.504893e+000 7.500000e-001 0.000000e+000
      endloop
   endfacet
   facet normal 6.123234e-017 1.000000e+000 0.000000e+000
      outer loop
         vertex 8.450489e+001 7.500000e-001 7.395571e-032
         vertex 6.775000e+000 7.500000e-001 -7.395571e-032
         vertex 3.475000e+000 7.500000e-001 0.000000e+000
      endloop
   endfacet
   facet normal 6.123234e-017 1.000000e+000 0.000000e+000
      outer loop
         vertex 8.450489e+001 7.500000e-001 7.395571e-032
         vertex 8.600000e+000 7.500000e-001 -1.232595e-031
         vertex 6.775000e+000 7.500000e-001 -7.395571e-032
      endloop
   endfacet
   facet normal 6.123234e-017 1.000000e+000 0.000000e+000
      outer loop
         vertex 8.450489e+001 7.500000e-001 7.395571e-032
         vertex 1.190000e+001 7.500000e-001 -1.232595e-031
         vertex 8.600000e+000 7.500000e-001 -1.232595e-031
      endloop
   endfacet
   facet normal 6.123234e-017 1.000000e+000 0.000000e+000
      outer loop
         vertex 8.450489e+001 7.500000e-001 7.395571e-032
         vertex 1.372500e+001 7.500000e-001 -1.232595e-031
         vertex 1.190000e+001 7.500000e-001 -1.232595e-031
      endloop
   endfacet
   facet normal 6.123234e-017 1.000000e+000 0.000000e+000
      outer loop
         vertex 8.450489e+001 7.500000e-001 7.395571e-032
         vertex 1.702500e+001 7.500000e-001 -1.232595e-031
         vertex 1.372500e+001 7.500000e-001 -1.232595e-031
      endloop
   endfacet
   facet normal 6.123234e-017 1.000000e+000 0.000000e+000
      outer loop
         vertex 8.450489e+001 7.500000e-001 7.395571e-032
         vertex 1.885000e+001 7.500000e-001 -1.232595e-031
         vertex 1.702500e+001 7.500000e-001 -1.232595e-031
      endloop
   endfacet
   facet normal 6.123234e-017 1.000000e+000 0.000000e+000
      outer loop
         vertex 8.450489e+001 7.500000e-001 7.395571e-032
         vertex 2.215000e+001 7.500000e-001 -1.232595e-031
         vertex 1.885000e+001 7.500000e-001 -1.232595e-031
      endloop
   endfacet
   facet normal 6.123234e-017 1.000000e+000 0.000000e+000
      outer loop
         vertex 8.450489e+001 7.500000e-001 7.395571e-032
         vertex 2.397500e+001 7.500000e-001 -1.232595e-031
         vertex 2.215000e+001 7.500000e-001 -1.232595e-031
      endloop
   endfacet
   facet normal 6.123234e-017 1.000000e+000 0.000000e+000
      outer loop
         vertex 8.450489e+001 7.500000e-001 7.395571e-032
         vertex 2.397500e+001 7.500000e-001 -1.232595e-031
         vertex 2.727500e+001 7.500000e-001 7.395571e-032
      endloop
   endfacet
   facet normal 6.123234e-017 1.000000e+000 0.000000e+000
      outer loop
         vertex 8.450489e+001 7.500000e-001 7.395571e-032
         vertex 2.910000e+001 7.500000e-001 -5.176900e-031
         vertex 2.727500e+001 7.500000e-001 7.395571e-032
      endloop
   endfacet
   facet normal 6.123234e-017 1.000000e+000 0.000000e+000
      outer loop
         vertex 8.450489e+001 7.500000e-001 7.395571e-032
         vertex 2.910000e+001 7.500000e-001 -5.176900e-031
         vertex 3.240000e+001 7.500000e-001 -3.204747e-031
      endloop
   endfacet
   facet normal 6.123234e-017 1.000000e+000 0.000000e+000
      outer loop
         vertex 8.450489e+001 7.500000e-001 7.395571e-032
         vertex 3.422500e+001 7.500000e-001 -7.149052e-031
         vertex 3.240000e+001 7.500000e-001 -3.204747e-031
      endloop
   endfacet
   facet normal 6.123234e-017 1.000000e+000 0.000000e+000
      outer loop
         vertex 8.450489e+001 7.500000e-001 7.395571e-032
         vertex 3.752500e+001 7.500000e-001 -7.149052e-031
         vertex 3.422500e+001 7.500000e-001 -7.149052e-031
      endloop
   endfacet
   facet normal 6.123234e-017 1.000000e+000 0.000000e+000
      outer loop
         vertex 8.450489e+001 7.500000e-001 7.395571e-032
         vertex 3.935000e+001 7.500000e-001 -7.149052e-031
         vertex 3.752500e+001 7.500000e-001 -7.149052e-031
      endloop
   endfacet
   facet normal 6.123234e-017 1.000000e+000 0.000000e+000
      outer loop
         vertex 8.450489e+001 7.500000e-001 7.395571e-032
         vertex 4.265000e+001 7.500000e-001 -7.149052e-031
         vertex 3.935000e+001 7.500000e-001 -7.149052e-031
      endloop
   endfacet
   facet normal 6.123234e-017 1.000000e+000 0.000000e+000
      outer loop
         vertex 8.450489e+001 7.500000e-001 7.395571e-032
         vertex 4.447500e+001 7.500000e-001 -7.149052e-031
         vertex 4.265000e+001 7.500000e-001 -7.149052e-031
      endloop
   endfacet
   facet normal 6.123234e-017 1.000000e+000 0.000000e+000
      outer loop
         vertex 8.450489e+001 7.500000e-001 7.395571e-032
         vertex 4.777500e+001 7.500000e-001 -7.149052e-031
         vertex 4.447500e+001 7.500000e-001 -7.149052e-031
      endloop
   endfacet
   facet normal 6.123234e-017 1.000000e+000 0.000000e+000
      outer loop
         vertex 8.450489e+001 7.500000e-001 7.395571e-032
         vertex 4.777500e+001 7.500000e-001 -7.149052e-031
         vertex 4.960000e+001 7.500000e-001 -3.204747e-031
      endloop
   endfacet
   facet normal 6.123234e-017 1.000000e+000 0.000000e+000
      outer loop
         vertex 8.450489e+001 7.500000e-001 7.395571e-032
         vertex 5.290000e+001 7.500000e-001 -7.149052e-031
         vertex 4.960000e+001 7.500000e-001 -3.204747e-031
      endloop
   endfacet
   facet normal 6.123234e-017 1.000000e+000 0.000000e+000
      outer loop
         vertex 8.450489e+001 7.500000e-001 7.395571e-032
         vertex 5.472500e+001 7.500000e-001 -7.149052e-031
         vertex 5.290000e+001 7.500000e-001 -7.149052e-031
      endloop
   endfacet
   facet normal 6.123234e-017 1.000000e+000 0.000000e+000
      outer loop
         vertex 8.450489e+001 7.500000e-001 7.395571e-032
         vertex 5.472500e+001 7.500000e-001 -7.149052e-031
         vertex 5.802500e+001 7.500000e-001 -3.204747e-031
      endloop
   endfacet
   facet normal 6.123234e-017 1.000000e+000 0.000000e+000
      outer loop
         vertex 8.450489e+001 7.500000e-001 7.395571e-032
         vertex 5.985000e+001 7.500000e-001 -7.149052e-031
         vertex 5.802500e+001 7.500000e-001 -3.204747e-031
      endloop
   endfacet
   facet normal 6.123234e-017 1.000000e+000 0.000000e+000
      outer loop
         vertex 8.450489e+001 7.500000e-001 7.395571e-032
         vertex 6.315000e+001 7.500000e-001 -7.149052e-031
         vertex 5.985000e+001 7.500000e-001 -7.149052e-031
      endloop
   endfacet
   facet normal 6.123234e-017 1.000000e+000 0.000000e+000
      outer loop
         vertex 8.450489e+001 7.500000e-001 7.395571e-032
         vertex 6.497500e+001 7.500000e-001 -7.149052e-031
         vertex 6.315000e+001 7.500000e-001 -7.149052e-031
      endloop
   endfacet
   facet normal 6.123234e-017 1.000000e+000 0.000000e+000
      outer loop
         vertex 8.450489e+001 7.500000e-001 7.395571e-032
         vertex 6.497500e+001 7.500000e-001 -7.149052e-031
         vertex 6.827500e+001 7.500000e-001 7.395571e-032
      endloop
   endfacet
   facet normal 6.123234e-017 1.000000e+000 0.000000e+000
      outer loop
         vertex 8.450489e+001 7.500000e-001 7.395571e-032
         vertex 7.010000e+001 7.500000e-001 -7.149052e-031
         vertex 6.827500e+001 7.500000e-001 7.395571e-032
      endloop
   endfacet
   facet normal 6.123234e-017 1.000000e+000 0.000000e+000
      outer loop
         vertex 8.450489e+001 7.500000e-001 7.395571e-032
         vertex 7.340000e+001 7.500000e-001 -7.149052e-031
         vertex 7.010000e+001 7.500000e-001 -7.149052e-031
      endloop
   endfacet
   facet normal 6.123234e-017 1.000000e+000 0.000000e+000
      outer loop
         vertex 8.450489e+001 7.500000e-001 7.395571e-032
         vertex 7.522500e+001 7.500000e-001 -7.149052e-031
         vertex 7.340000e+001 7.500000e-001 -7.149052e-031
      endloop
   endfacet
   facet normal 6.123234e-017 1.000000e+000 0.000000e+000
      outer loop
         vertex 8.450489e+001 7.500000e-001 7.395571e-032
         vertex 7.852500e+001 7.500000e-001 -7.149052e-031
         vertex 7.522500e+001 7.500000e-001 -7.149052e-031
      endloop
   endfacet
   facet normal 6.123234e-017 1.000000e+000 0.000000e+000
      outer loop
         vertex 8.450489e+001 7.500000e-001 7.395571e-032
         vertex 8.035000e+001 7.500000e-001 -7.149052e-031
         vertex 7.852500e+001 7.500000e-001 -7.149052e-031
      endloop
   endfacet
   facet normal 6.123234e-017 1.000000e+000 0.000000e+000
      outer loop
         vertex 8.450489e+001 7.500000e-001 7.395571e-032
         vertex 8.365000e+001 7.500000e-001 -7.149052e-031
         vertex 8.035000e+001 7.500000e-001 -7.149052e-031
      endloop
   endfacet
   facet normal 0.000000e+000 0.000000e+000 1.000000e+000
      outer loop
         vertex 3.475000e+000 -7.500000e-001 1.000000e+001
         vertex 6.775000e+000 -7.500000e-001 1.000000e+001
         vertex 6.775000e+000 7.500000e-001 1.000000e+001
      endloop
   endfacet
   facet normal 0.000000e+000 0.000000e+000 1.000000e+000
      outer loop
         vertex 3.475000e+000 -7.500000e-001 1.000000e+001
         vertex 6.775000e+000 7.500000e-001 1.000000e+001
         vertex 3.475000e+000 7.500000e-001 1.000000e+001
      endloop
   endfacet
   facet normal -1.000000e+000 1.224647e-016 0.000000e+000
      outer loop
         vertex 3.475000e+000 7.500000e-001 1.000000e+001
         vertex 3.475000e+000 7.500000e-001 -1.668581e-016
         vertex 3.475000e+000 -7.500000e-001 -1.209339e-016
      endloop
   endfacet
   facet normal -1.000000e+000 1.224647e-016 0.000000e+000
      outer loop
         vertex 3.475000e+000 7.500000e-001 1.000000e+001
         vertex 3.475000e+000 -7.500000e-001 -1.209339e-016
         vertex 3.475000e+000 -7.500000e-001 1.000000e+001
      endloop
   endfacet
   facet normal -1.836970e-016 -1.000000e+000 0.000000e+000
      outer loop
         vertex 3.475000e+000 -7.500000e-001 1.000000e+001
         vertex 3.475000e+000 -7.500000e-001 -1.209339e-016
         vertex 6.775000e+000 -7.500000e-001 8.149698e-017
      endloop
   endfacet
   facet normal -1.836970e-016 -1.000000e+000 0.000000e+000
      outer loop
         vertex 3.475000e+000 -7.500000e-001 1.000000e+001
         vertex 6.775000e+000 -7.500000e-001 8.149698e-017
         vertex 6.775000e+000 -7.500000e-001 1.000000e+001
      endloop
   endfacet
   facet normal 1.000000e+000 -6.125742e-017 0.000000e+000
      outer loop
         vertex 6.775000e+000 -7.500000e-001 1.000000e+001
         vertex 6.775000e+000 -7.500000e-001 -2.262242e-015
         vertex 6.775000e+000 7.500000e-001 4.607922e-016
      endloop
   endfacet
   facet normal 1.000000e+000 -6.125742e-017 0.000000e+000
      outer loop
         vertex 6.775000e+000 -7.500000e-001 1.000000e+001
         vertex 6.775000e+000 7.500000e-001 4.607922e-016
         vertex 6.775000e+000 7.500000e-001 1.000000e+001
      endloop
   endfacet
   facet normal 6.123234e-017 1.000000e+000 0.000000e+000
      outer loop
         vertex 6.775000e+000 7.500000e-001 1.000000e+001
         vertex 6.775000e+000 7.500000e-001 4.607922e-016
         vertex 3.475000e+000 7.500000e-001 0.000000e+000
      endloop
   endfacet
   facet normal 6.123234e-017 1.000000e+000 0.000000e+000
      outer loop
         vertex 6.775000e+000 7.500000e-001 1.000000e+001
         vertex 3.475000e+000 7.500000e-001 0.000000e+000
         vertex 3.475000e+000 7.500000e-001 1.000000e+001
      endloop
   endfacet
   facet normal 0.000000e+000 0.000000e+000 1.000000e+000
      outer loop
         vertex 8.600000e+000 -7.500000e-001 1.000000e+001
         vertex 1.190000e+001 -7.500000e-001 1.000000e+001
         vertex 1.190000e+001 7.500000e-001 1.000000e+001
      endloop
   endfacet
   facet normal 0.000000e+000 0.000000e+000 1.000000e+000
      outer loop
         vertex 8.600000e+000 -7.500000e-001 1.000000e+001
         vertex 1.190000e+001 7.500000e-001 1.000000e+001
         vertex 8.600000e+000 7.500000e-001 1.000000e+001
      endloop
   endfacet
   facet normal -1.000000e+000 1.224647e-016 0.000000e+000
      outer loop
         vertex 8.600000e+000 7.500000e-001 1.000000e+001
         vertex 8.600000e+000 7.500000e-001 -4.806739e-016
         vertex 8.600000e+000 -7.500000e-001 -4.347496e-016
      endloop
   endfacet
   facet normal -1.000000e+000 1.224647e-016 0.000000e+000
      outer loop
         vertex 8.600000e+000 7.500000e-001 1.000000e+001
         vertex 8.600000e+000 -7.500000e-001 -4.347496e-016
         vertex 8.600000e+000 -7.500000e-001 1.000000e+001
      endloop
   endfacet
   facet normal -1.836970e-016 -1.000000e+000 0.000000e+000
      outer loop
         vertex 8.600000e+000 -7.500000e-001 1.000000e+001
         vertex 8.600000e+000 -7.500000e-001 -4.347496e-016
         vertex 1.190000e+001 -7.500000e-001 7.612361e-017
      endloop
   endfacet
   facet normal -1.836970e-016 -1.000000e+000 0.000000e+000
      outer loop
         vertex 8.600000e+000 -7.500000e-001 1.000000e+001
         vertex 1.190000e+001 -7.500000e-001 7.612361e-017
         vertex 1.190000e+001 -7.500000e-001 1.000000e+001
      endloop
   endfacet
   facet normal 1.000000e+000 -6.125742e-017 0.000000e+000
      outer loop
         vertex 1.190000e+001 -7.500000e-001 1.000000e+001
         vertex 1.190000e+001 -7.500000e-001 -1.320795e-015
         vertex 1.190000e+001 7.500000e-001 7.746079e-016
      endloop
   endfacet
   facet normal 1.000000e+000 -6.125742e-017 0.000000e+000
      outer loop
         vertex 1.190000e+001 -7.500000e-001 1.000000e+001
         vertex 1.190000e+001 7.500000e-001 7.746079e-016
         vertex 1.190000e+001 7.500000e-001 1.000000e+001
      endloop
   endfacet
   facet normal 6.123234e-017 1.000000e+000 0.000000e+000
      outer loop
         vertex 1.190000e+001 7.500000e-001 1.000000e+001
         vertex 1.190000e+001 7.500000e-001 7.746079e-016
         vertex 8.600000e+000 7.500000e-001 -1.232595e-031
      endloop
   endfacet
   facet normal 6.123234e-017 1.000000e+000 0.000000e+000
      outer loop
         vertex 1.190000e+001 7.500000e-001 1.000000e+001
         vertex 8.600000e+000 7.500000e-001 -1.232595e-031
         vertex 8.600000e+000 7.500000e-001 1.000000e+001
      endloop
   endfacet
   facet normal 0.000000e+000 0.000000e+000 1.000000e+000
      outer loop
         vertex 1.372500e+001 -7.500000e-001 1.000000e+001
         vertex 1.702500e+001 -7.500000e-001 1.000000e+001
         vertex 1.702500e+001 7.500000e-001 1.000000e+001
      endloop
   endfacet
   facet normal 0.000000e+000 0.000000e+000 1.000000e+000
      outer loop
         vertex 1.372500e+001 -7.500000e-001 1.000000e+001
         vertex 1.702500e+001 7.500000e-001 1.000000e+001
         vertex 1.372500e+001 7.500000e-001 1.000000e+001
      endloop
   endfacet
   facet normal -1.000000e+000 1.224647e-016 0.000000e+000
      outer loop
         vertex 1.372500e+001 7.500000e-001 1.000000e+001
         vertex 1.372500e+001 7.500000e-001 -7.944896e-016
         vertex 1.372500e+001 -7.500000e-001 -7.485654e-016
      endloop
   endfacet
   facet normal -1.000000e+000 1.224647e-016 0.000000e+000
      outer loop
         vertex 1.372500e+001 7.500000e-001 1.000000e+001
         vertex 1.372500e+001 -7.500000e-001 -7.485654e-016
         vertex 1.372500e+001 -7.500000e-001 1.000000e+001
      endloop
   endfacet
   facet normal -1.836970e-016 -1.000000e+000 0.000000e+000
      outer loop
         vertex 1.372500e+001 -7.500000e-001 1.000000e+001
         vertex 1.372500e+001 -7.500000e-001 -7.485654e-016
         vertex 1.702500e+001 -7.500000e-001 7.075023e-017
      endloop
   endfacet
   facet normal -1.836970e-016 -1.000000e+000 0.000000e+000
      outer loop
         vertex 1.372500e+001 -7.500000e-001 1.000000e+001
         vertex 1.702500e+001 -7.500000e-001 7.075023e-017
         vertex 1.702500e+001 -7.500000e-001 1.000000e+001
      endloop
   endfacet
   facet normal 1.000000e+000 -6.125742e-017 0.000000e+000
      outer loop
         vertex 1.702500e+001 -7.500000e-001 1.000000e+001
         vertex 1.702500e+001 -7.500000e-001 -3.793477e-016
         vertex 1.702500e+001 7.500000e-001 -6.879332e-016
      endloop
   endfacet
   facet normal 1.000000e+000 -6.125742e-017 0.000000e+000
      outer loop
         vertex 1.702500e+001 -7.500000e-001 1.000000e+001
         vertex 1.702500e+001 7.500000e-001 -6.879332e-016
         vertex 1.702500e+001 7.500000e-001 1.000000e+001
      endloop
   endfacet
   facet normal 6.123234e-017 1.000000e+000 0.000000e+000
      outer loop
         vertex 1.702500e+001 7.500000e-001 1.000000e+001
         vertex 1.702500e+001 7.500000e-001 -6.879332e-016
         vertex 1.372500e+001 7.500000e-001 -1.232595e-031
      endloop
   endfacet
   facet normal 6.123234e-017 1.000000e+000 0.000000e+000
      outer loop
         vertex 1.702500e+001 7.500000e-001 1.000000e+001
         vertex 1.372500e+001 7.500000e-001 -1.232595e-031
         vertex 1.372500e+001 7.500000e-001 1.000000e+001
      endloop
   endfacet
   facet normal 0.000000e+000 0.000000e+000 1.000000e+000
      outer loop
         vertex 1.885000e+001 -7.500000e-001 1.000000e+001
         vertex 2.215000e+001 -7.500000e-001 1.000000e+001
         vertex 2.215000e+001 7.500000e-001 1.000000e+001
      endloop
   endfacet
   facet normal 0.000000e+000 0.000000e+000 1.000000e+000
      outer loop
         vertex 1.885000e+001 -7.500000e-001 1.000000e+001
         vertex 2.215000e+001 7.500000e-001 1.000000e+001
         vertex 1.885000e+001 7.500000e-001 1.000000e+001
      endloop
   endfacet
   facet normal -1.000000e+000 1.224647e-016 0.000000e+000
      outer loop
         vertex 1.885000e+001 7.500000e-001 1.000000e+001
         vertex 1.885000e+001 7.500000e-001 6.680515e-016
         vertex 1.885000e+001 -7.500000e-001 7.139757e-016
      endloop
   endfacet
   facet normal -1.000000e+000 1.224647e-016 0.000000e+000
      outer loop
         vertex 1.885000e+001 7.500000e-001 1.000000e+001
         vertex 1.885000e+001 -7.500000e-001 7.139757e-016
         vertex 1.885000e+001 -7.500000e-001 1.000000e+001
      endloop
   endfacet
   facet normal -1.836970e-016 -1.000000e+000 0.000000e+000
      outer loop
         vertex 1.885000e+001 -7.500000e-001 1.000000e+001
         vertex 1.885000e+001 -7.500000e-001 7.139757e-016
         vertex 2.215000e+001 -7.500000e-001 6.537685e-017
      endloop
   endfacet
   facet normal -1.836970e-016 -1.000000e+000 0.000000e+000
      outer loop
         vertex 1.885000e+001 -7.500000e-001 1.000000e+001
         vertex 2.215000e+001 -7.500000e-001 6.537685e-017
         vertex 2.215000e+001 -7.500000e-001 1.000000e+001
      endloop
   endfacet
   facet normal 1.000000e+000 -6.125742e-017 0.000000e+000
      outer loop
         vertex 2.215000e+001 -7.500000e-001 1.000000e+001
         vertex 2.215000e+001 -7.500000e-001 5.620996e-016
         vertex 2.215000e+001 7.500000e-001 -3.741174e-016
      endloop
   endfacet
   facet normal 1.000000e+000 -6.125742e-017 0.000000e+000
      outer loop
         vertex 2.215000e+001 -7.500000e-001 1.000000e+001
         vertex 2.215000e+001 7.500000e-001 -3.741174e-016
         vertex 2.215000e+001 7.500000e-001 1.000000e+001
      endloop
   endfacet
   facet normal 6.123234e-017 1.000000e+000 0.000000e+000
      outer loop
         vertex 2.215000e+001 7.500000e-001 1.000000e+001
         vertex 2.215000e+001 7.500000e-001 -3.741174e-016
         vertex 1.885000e+001 7.500000e-001 -1.232595e-031
      endloop
   endfacet
   facet normal 6.123234e-017 1.000000e+000 0.000000e+000
      outer loop
         vertex 2.215000e+001 7.500000e-001 1.000000e+001
         vertex 1.885000e+001 7.500000e-001 -1.232595e-031
         vertex 1.885000e+001 7.500000e-001 1.000000e+001
      endloop
   endfacet
   facet normal 0.000000e+000 0.000000e+000 1.000000e+000
      outer loop
         vertex 2.397500e+001 -7.500000e-001 1.000000e+001
         vertex 2.727500e+001 -7.500000e-001 1.000000e+001
         vertex 2.727500e+001 7.500000e-001 1.000000e+001
      endloop
   endfacet
   facet normal 0.000000e+000 0.000000e+000 1.000000e+000
      outer loop
         vertex 2.397500e+001 -7.500000e-001 1.000000e+001
         vertex 2.727500e+001 7.500000e-001 1.000000e+001
         vertex 2.397500e+001 7.500000e-001 1.000000e+001
      endloop
   endfacet
   facet normal -1.000000e+000 1.224647e-016 0.000000e+000
      outer loop
         vertex 2.397500e+001 7.500000e-001 1.000000e+001
         vertex 2.397500e+001 7.500000e-001 3.542357e-016
         vertex 2.397500e+001 -7.500000e-001 4.001600e-016
      endloop
   endfacet
   facet normal -1.000000e+000 1.224647e-016 0.000000e+000
      outer loop
         vertex 2.397500e+001 7.500000e-001 1.000000e+001
         vertex 2.397500e+001 -7.500000e-001 4.001600e-016
         vertex 2.397500e+001 -7.500000e-001 1.000000e+001
      endloop
   endfacet
   facet normal -1.836970e-016 -1.000000e+000 0.000000e+000
      outer loop
         vertex 2.397500e+001 -7.500000e-001 1.000000e+001
         vertex 2.397500e+001 -7.500000e-001 4.001600e-016
         vertex 2.727500e+001 -7.500000e-001 6.000347e-017
      endloop
   endfacet
   facet normal -1.836970e-016 -1.000000e+000 0.000000e+000
      outer loop
         vertex 2.397500e+001 -7.500000e-001 1.000000e+001
         vertex 2.727500e+001 -7.500000e-001 6.000347e-017
         vertex 2.727500e+001 -7.500000e-001 1.000000e+001
      endloop
   endfacet
   facet normal 1.000000e+000 -6.125742e-017 0.000000e+000
      outer loop
         vertex 2.727500e+001 -7.500000e-001 1.000000e+001
         vertex 2.727500e+001 -7.500000e-001 1.503547e-015
         vertex 2.727500e+001 7.500000e-001 -6.030170e-017
      endloop
   endfacet
   facet normal 1.000000e+000 -6.125742e-017 0.000000e+000
      outer loop
         vertex 2.727500e+001 -7.500000e-001 1.000000e+001
         vertex 2.727500e+001 7.500000e-001 -6.030170e-017
         vertex 2.727500e+001 7.500000e-001 1.000000e+001
      endloop
   endfacet
   facet normal 6.123234e-017 1.000000e+000 0.000000e+000
      outer loop
         vertex 2.727500e+001 7.500000e-001 1.000000e+001
         vertex 2.727500e+001 7.500000e-001 -6.030170e-017
         vertex 2.397500e+001 7.500000e-001 -1.232595e-031
      endloop
   endfacet
   facet normal 6.123234e-017 1.000000e+000 0.000000e+000
      outer loop
         vertex 2.727500e+001 7.500000e-001 1.000000e+001
         vertex 2.397500e+001 7.500000e-001 -1.232595e-031
         vertex 2.397500e+001 7.500000e-001 1.000000e+001
      endloop
   endfacet
   facet normal 0.000000e+000 0.000000e+000 1.000000e+000
      outer loop
         vertex 2.910000e+001 -7.500000e-001 1.000000e+001
         vertex 3.240000e+001 -7.500000e-001 1.000000e+001
         vertex 3.240000e+001 7.500000e-001 1.000000e+001
      endloop
   endfacet
   facet normal 0.000000e+000 0.000000e+000 1.000000e+000
      outer loop
         vertex 2.910000e+001 -7.500000e-001 1.000000e+001
         vertex 3.240000e+001 7.500000e-001 1.000000e+001
         vertex 2.910000e+001 7.500000e-001 1.000000e+001
      endloop
   endfacet
   facet normal -1.000000e+000 1.224647e-016 0.000000e+000
      outer loop
         vertex 2.910000e+001 7.500000e-001 1.000000e+001
         vertex 2.910000e+001 7.500000e-001 4.042000e-017
         vertex 2.910000e+001 -7.500000e-001 8.634426e-017
      endloop
   endfacet
   facet normal -1.000000e+000 1.224647e-016 0.000000e+000
      outer loop
         vertex 2.910000e+001 7.500000e-001 1.000000e+001
         vertex 2.910000e+001 -7.500000e-001 8.634426e-017
         vertex 2.910000e+001 -7.500000e-001 1.000000e+001
      endloop
   endfacet
   facet normal -1.836970e-016 -1.000000e+000 0.000000e+000
      outer loop
         vertex 2.910000e+001 -7.500000e-001 1.000000e+001
         vertex 2.910000e+001 -7.500000e-001 8.634426e-017
         vertex 3.240000e+001 -7.500000e-001 5.463010e-017
      endloop
   endfacet
   facet normal -1.836970e-016 -1.000000e+000 0.000000e+000
      outer loop
         vertex 2.910000e+001 -7.500000e-001 1.000000e+001
         vertex 3.240000e+001 -7.500000e-001 5.463010e-017
         vertex 3.240000e+001 -7.500000e-001 1.000000e+001
      endloop
   endfacet
   facet normal 1.000000e+000 -6.125742e-017 0.000000e+000
      outer loop
         vertex 3.240000e+001 -7.500000e-001 1.000000e+001
         vertex 3.240000e+001 -7.500000e-001 2.444994e-015
         vertex 3.240000e+001 7.500000e-001 2.535140e-016
      endloop
   endfacet
   facet normal 1.000000e+000 -6.125742e-017 0.000000e+000
      outer loop
         vertex 3.240000e+001 -7.500000e-001 1.000000e+001
         vertex 3.240000e+001 7.500000e-001 2.535140e-016
         vertex 3.240000e+001 7.500000e-001 1.000000e+001
      endloop
   endfacet
   facet normal 6.123234e-017 1.000000e+000 0.000000e+000
      outer loop
         vertex 3.240000e+001 7.500000e-001 1.000000e+001
         vertex 3.240000e+001 7.500000e-001 2.535140e-016
         vertex 2.910000e+001 7.500000e-001 -5.176900e-031
      endloop
   endfacet
   facet normal 6.123234e-017 1.000000e+000 0.000000e+000
      outer loop
         vertex 3.240000e+001 7.500000e-001 1.000000e+001
         vertex 2.910000e+001 7.500000e-001 -5.176900e-031
         vertex 2.910000e+001 7.500000e-001 1.000000e+001
      endloop
   endfacet
   facet normal 0.000000e+000 0.000000e+000 1.000000e+000
      outer loop
         vertex 3.422500e+001 -7.500000e-001 1.000000e+001
         vertex 3.752500e+001 -7.500000e-001 1.000000e+001
         vertex 3.752500e+001 7.500000e-001 1.000000e+001
      endloop
   endfacet
   facet normal 0.000000e+000 0.000000e+000 1.000000e+000
      outer loop
         vertex 3.422500e+001 -7.500000e-001 1.000000e+001
         vertex 3.752500e+001 7.500000e-001 1.000000e+001
         vertex 3.422500e+001 7.500000e-001 1.000000e+001
      endloop
   endfacet
   facet normal -1.000000e+000 1.224647e-016 0.000000e+000
      outer loop
         vertex 3.422500e+001 7.500000e-001 1.000000e+001
         vertex 3.422500e+001 7.500000e-001 -2.733957e-016
         vertex 3.422500e+001 -7.500000e-001 -2.274715e-016
      endloop
   endfacet
   facet normal -1.000000e+000 1.224647e-016 0.000000e+000
      outer loop
         vertex 3.422500e+001 7.500000e-001 1.000000e+001
         vertex 3.422500e+001 -7.500000e-001 -2.274715e-016
         vertex 3.422500e+001 -7.500000e-001 1.000000e+001
      endloop
   endfacet
   facet normal -1.836970e-016 -1.000000e+000 0.000000e+000
      outer loop
         vertex 3.422500e+001 -7.500000e-001 1.000000e+001
         vertex 3.422500e+001 -7.500000e-001 -2.274715e-016
         vertex 3.752500e+001 -7.500000e-001 4.925672e-017
      endloop
   endfacet
   facet normal -1.836970e-016 -1.000000e+000 0.000000e+000
      outer loop
         vertex 3.422500e+001 -7.500000e-001 1.000000e+001
         vertex 3.752500e+001 -7.500000e-001 4.925672e-017
         vertex 3.752500e+001 -7.500000e-001 1.000000e+001
      endloop
   endfacet
   facet normal 1.000000e+000 -6.125742e-017 0.000000e+000
      outer loop
         vertex 3.752500e+001 -7.500000e-001 1.000000e+001
         vertex 3.752500e+001 -7.500000e-001 -1.662724e-016
         vertex 3.752500e+001 7.500000e-001 5.673298e-016
      endloop
   endfacet
   facet normal 1.000000e+000 -6.125742e-017 0.000000e+000
      outer loop
         vertex 3.752500e+001 -7.500000e-001 1.000000e+001
         vertex 3.752500e+001 7.500000e-001 5.673298e-016
         vertex 3.752500e+001 7.500000e-001 1.000000e+001
      endloop
   endfacet
   facet normal 6.123234e-017 1.000000e+000 0.000000e+000
      outer loop
         vertex 3.752500e+001 7.500000e-001 1.000000e+001
         vertex 3.752500e+001 7.500000e-001 5.673298e-016
         vertex 3.422500e+001 7.500000e-001 -7.149052e-031
      endloop
   endfacet
   facet normal 6.123234e-017 1.000000e+000 0.000000e+000
      outer loop
         vertex 3.752500e+001 7.500000e-001 1.000000e+001
         vertex 3.422500e+001 7.500000e-001 -7.149052e-031
         vertex 3.422500e+001 7.500000e-001 1.000000e+001
      endloop
   endfacet
   facet normal 0.000000e+000 0.000000e+000 1.000000e+000
      outer loop
         vertex 3.935000e+001 -7.500000e-001 1.000000e+001
         vertex 4.265000e+001 -7.500000e-001 1.000000e+001
         vertex 4.265000e+001 7.500000e-001 1.000000e+001
      endloop
   endfacet
   facet normal 0.000000e+000 0.000000e+000 1.000000e+000
      outer loop
         vertex 3.935000e+001 -7.500000e-001 1.000000e+001
         vertex 4.265000e+001 7.500000e-001 1.000000e+001
         vertex 3.935000e+001 7.500000e-001 1.000000e+001
      endloop
   endfacet
   facet normal -1.000000e+000 1.224647e-016 0.000000e+000
      outer loop
         vertex 3.935000e+001 7.500000e-001 1.000000e+001
         vertex 3.935000e+001 7.500000e-001 -5.872115e-016
         vertex 3.935000e+001 -7.500000e-001 -5.412872e-016
      endloop
   endfacet
   facet normal -1.000000e+000 1.224647e-016 0.000000e+000
      outer loop
         vertex 3.935000e+001 7.500000e-001 1.000000e+001
         vertex 3.935000e+001 -7.500000e-001 -5.412872e-016
         vertex 3.935000e+001 -7.500000e-001 1.000000e+001
      endloop
   endfacet
   facet normal -1.836970e-016 -1.000000e+000 0.000000e+000
      outer loop
         vertex 3.935000e+001 -7.500000e-001 1.000000e+001
         vertex 3.935000e+001 -7.500000e-001 -5.412872e-016
         vertex 4.265000e+001 -7.500000e-001 4.388334e-017
      endloop
   endfacet
   facet normal -1.836970e-016 -1.000000e+000 0.000000e+000
      outer loop
         vertex 3.935000e+001 -7.500000e-001 1.000000e+001
         vertex 4.265000e+001 -7.500000e-001 4.388334e-017
         vertex 4.265000e+001 -7.500000e-001 1.000000e+001
      endloop
   endfacet
   facet normal 1.000000e+000 -6.125742e-017 0.000000e+000
      outer loop
         vertex 4.265000e+001 -7.500000e-001 1.000000e+001
         vertex 4.265000e+001 -7.500000e-001 7.751748e-016
         vertex 4.265000e+001 7.500000e-001 8.811455e-016
      endloop
   endfacet
   facet normal 1.000000e+000 -6.125742e-017 0.000000e+000
      outer loop
         vertex 4.265000e+001 -7.500000e-001 1.000000e+001
         vertex 4.265000e+001 7.500000e-001 8.811455e-016
         vertex 4.265000e+001 7.500000e-001 1.000000e+001
      endloop
   endfacet
   facet normal 6.123234e-017 1.000000e+000 0.000000e+000
      outer loop
         vertex 4.265000e+001 7.500000e-001 1.000000e+001
         vertex 4.265000e+001 7.500000e-001 8.811455e-016
         vertex 3.935000e+001 7.500000e-001 -7.149052e-031
      endloop
   endfacet
   facet normal 6.123234e-017 1.000000e+000 0.000000e+000
      outer loop
         vertex 4.265000e+001 7.500000e-001 1.000000e+001
         vertex 3.935000e+001 7.500000e-001 -7.149052e-031
         vertex 3.935000e+001 7.500000e-001 1.000000e+001
      endloop
   endfacet
   facet normal 0.000000e+000 0.000000e+000 1.000000e+000
      outer loop
         vertex 4.447500e+001 -7.500000e-001 1.000000e+001
         vertex 4.777500e+001 -7.500000e-001 1.000000e+001
         vertex 4.777500e+001 7.500000e-001 1.000000e+001
      endloop
   endfacet
   facet normal 0.000000e+000 0.000000e+000 1.000000e+000
      outer loop
         vertex 4.447500e+001 -7.500000e-001 1.000000e+001
         vertex 4.777500e+001 7.500000e-001 1.000000e+001
         vertex 4.447500e+001 7.500000e-001 1.000000e+001
      endloop
   endfacet
   facet normal -1.000000e+000 1.224647e-016 0.000000e+000
      outer loop
         vertex 4.447500e+001 7.500000e-001 1.000000e+001
         vertex 4.447500e+001 7.500000e-001 8.753296e-016
         vertex 4.447500e+001 -7.500000e-001 -8.551030e-016
      endloop
   endfacet
   facet normal -1.000000e+000 1.224647e-016 0.000000e+000
      outer loop
         vertex 4.447500e+001 7.500000e-001 1.000000e+001
         vertex 4.447500e+001 -7.500000e-001 -8.551030e-016
         vertex 4.447500e+001 -7.500000e-001 1.000000e+001
      endloop
   endfacet
   facet normal -1.836970e-016 -1.000000e+000 0.000000e+000
      outer loop
         vertex 4.447500e+001 -7.500000e-001 1.000000e+001
         vertex 4.447500e+001 -7.500000e-001 -8.551030e-016
         vertex 4.777500e+001 -7.500000e-001 3.850997e-017
      endloop
   endfacet
   facet normal -1.836970e-016 -1.000000e+000 0.000000e+000
      outer loop
         vertex 4.447500e+001 -7.500000e-001 1.000000e+001
         vertex 4.777500e+001 -7.500000e-001 3.850997e-017
         vertex 4.777500e+001 -7.500000e-001 1.000000e+001
      endloop
   endfacet
   facet normal 1.000000e+000 -6.125742e-017 0.000000e+000
      outer loop
         vertex 4.777500e+001 -7.500000e-001 1.000000e+001
         vertex 4.777500e+001 -7.500000e-001 -1.836092e-015
         vertex 4.777500e+001 7.500000e-001 -5.813956e-016
      endloop
   endfacet
   facet normal 1.000000e+000 -6.125742e-017 0.000000e+000
      outer loop
         vertex 4.777500e+001 -7.500000e-001 1.000000e+001
         vertex 4.777500e+001 7.500000e-001 -5.813956e-016
         vertex 4.777500e+001 7.500000e-001 1.000000e+001
      endloop
   endfacet
   facet normal 6.123234e-017 1.000000e+000 0.000000e+000
      outer loop
         vertex 4.777500e+001 7.500000e-001 1.000000e+001
         vertex 4.777500e+001 7.500000e-001 -5.813956e-016
         vertex 4.447500e+001 7.500000e-001 -7.149052e-031
      endloop
   endfacet
   facet normal 6.123234e-017 1.000000e+000 0.000000e+000
      outer loop
         vertex 4.777500e+001 7.500000e-001 1.000000e+001
         vertex 4.447500e+001 7.500000e-001 -7.149052e-031
         vertex 4.447500e+001 7.500000e-001 1.000000e+001
      endloop
   endfacet
   facet normal 0.000000e+000 0.000000e+000 1.000000e+000
      outer loop
         vertex 4.960000e+001 -7.500000e-001 1.000000e+001
         vertex 5.290000e+001 -7.500000e-001 1.000000e+001
         vertex 5.290000e+001 7.500000e-001 1.000000e+001
      endloop
   endfacet
   facet normal 0.000000e+000 0.000000e+000 1.000000e+000
      outer loop
         vertex 4.960000e+001 -7.500000e-001 1.000000e+001
         vertex 5.290000e+001 7.500000e-001 1.000000e+001
         vertex 4.960000e+001 7.500000e-001 1.000000e+001
      endloop
   endfacet
   facet normal -1.000000e+000 1.224647e-016 0.000000e+000
      outer loop
         vertex 4.960000e+001 7.500000e-001 1.000000e+001
         vertex 4.960000e+001 7.500000e-001 5.615139e-016
         vertex 4.960000e+001 -7.500000e-001 6.074381e-016
      endloop
   endfacet
   facet normal -1.000000e+000 1.224647e-016 0.000000e+000
      outer loop
         vertex 4.960000e+001 7.500000e-001 1.000000e+001
         vertex 4.960000e+001 -7.500000e-001 6.074381e-016
         vertex 4.960000e+001 -7.500000e-001 1.000000e+001
      endloop
   endfacet
   facet normal -1.836970e-016 -1.000000e+000 0.000000e+000
      outer loop
         vertex 4.960000e+001 -7.500000e-001 1.000000e+001
         vertex 4.960000e+001 -7.500000e-001 6.074381e-016
         vertex 5.290000e+001 -7.500000e-001 3.313659e-017
      endloop
   endfacet
   facet normal -1.836970e-016 -1.000000e+000 0.000000e+000
      outer loop
         vertex 4.960000e+001 -7.500000e-001 1.000000e+001
         vertex 5.290000e+001 -7.500000e-001 3.313659e-017
         vertex 5.290000e+001 -7.500000e-001 1.000000e+001
      endloop
   endfacet
   facet normal 1.000000e+000 -6.125742e-017 0.000000e+000
      outer loop
         vertex 5.290000e+001 -7.500000e-001 1.000000e+001
         vertex 5.290000e+001 -7.500000e-001 -8.946444e-016
         vertex 5.290000e+001 7.500000e-001 -2.675798e-016
      endloop
   endfacet
   facet normal 1.000000e+000 -6.125742e-017 0.000000e+000
      outer loop
         vertex 5.290000e+001 -7.500000e-001 1.000000e+001
         vertex 5.290000e+001 7.500000e-001 -2.675798e-016
         vertex 5.290000e+001 7.500000e-001 1.000000e+001
      endloop
   endfacet
   facet normal 6.123234e-017 1.000000e+000 0.000000e+000
      outer loop
         vertex 5.290000e+001 7.500000e-001 1.000000e+001
         vertex 5.290000e+001 7.500000e-001 -2.675798e-016
         vertex 4.960000e+001 7.500000e-001 -3.204747e-031
      endloop
   endfacet
   facet normal 6.123234e-017 1.000000e+000 0.000000e+000
      outer loop
         vertex 5.290000e+001 7.500000e-001 1.000000e+001
         vertex 4.960000e+001 7.500000e-001 -3.204747e-031
         vertex 4.960000e+001 7.500000e-001 1.000000e+001
      endloop
   endfacet
   facet normal 0.000000e+000 0.000000e+000 1.000000e+000
      outer loop
         vertex 5.472500e+001 -7.500000e-001 1.000000e+001
         vertex 5.802500e+001 -7.500000e-001 1.000000e+001
         vertex 5.802500e+001 7.500000e-001 1.000000e+001
      endloop
   endfacet
   facet normal 0.000000e+000 0.000000e+000 1.000000e+000
      outer loop
         vertex 5.472500e+001 -7.500000e-001 1.000000e+001
         vertex 5.802500e+001 7.500000e-001 1.000000e+001
         vertex 5.472500e+001 7.500000e-001 1.000000e+001
      endloop
   endfacet
   facet normal -1.000000e+000 1.224647e-016 0.000000e+000
      outer loop
         vertex 5.472500e+001 7.500000e-001 1.000000e+001
         vertex 5.472500e+001 7.500000e-001 2.476981e-016
         vertex 5.472500e+001 -7.500000e-001 2.936224e-016
      endloop
   endfacet
   facet normal -1.000000e+000 1.224647e-016 0.000000e+000
      outer loop
         vertex 5.472500e+001 7.500000e-001 1.000000e+001
         vertex 5.472500e+001 -7.500000e-001 2.936224e-016
         vertex 5.472500e+001 -7.500000e-001 1.000000e+001
      endloop
   endfacet
   facet normal -1.836970e-016 -1.000000e+000 0.000000e+000
      outer loop
         vertex 5.472500e+001 -7.500000e-001 1.000000e+001
         vertex 5.472500e+001 -7.500000e-001 2.936224e-016
         vertex 5.802500e+001 -7.500000e-001 2.776321e-017
      endloop
   endfacet
   facet normal -1.836970e-016 -1.000000e+000 0.000000e+000
      outer loop
         vertex 5.472500e+001 -7.500000e-001 1.000000e+001
         vertex 5.802500e+001 -7.500000e-001 2.776321e-017
         vertex 5.802500e+001 -7.500000e-001 1.000000e+001
      endloop
   endfacet
   facet normal 1.000000e+000 -6.125742e-017 0.000000e+000
      outer loop
         vertex 5.802500e+001 -7.500000e-001 1.000000e+001
         vertex 5.802500e+001 -7.500000e-001 4.680280e-017
         vertex 5.802500e+001 7.500000e-001 4.623591e-017
      endloop
   endfacet
   facet normal 1.000000e+000 -6.125742e-017 0.000000e+000
      outer loop
         vertex 5.802500e+001 -7.500000e-001 1.000000e+001
         vertex 5.802500e+001 7.500000e-001 4.623591e-017
         vertex 5.802500e+001 7.500000e-001 1.000000e+001
      endloop
   endfacet
   facet normal 6.123234e-017 1.000000e+000 0.000000e+000
      outer loop
         vertex 5.802500e+001 7.500000e-001 1.000000e+001
         vertex 5.802500e+001 7.500000e-001 4.623591e-017
         vertex 5.472500e+001 7.500000e-001 -7.149052e-031
      endloop
   endfacet
   facet normal 6.123234e-017 1.000000e+000 0.000000e+000
      outer loop
         vertex 5.802500e+001 7.500000e-001 1.000000e+001
         vertex 5.472500e+001 7.500000e-001 -7.149052e-031
         vertex 5.472500e+001 7.500000e-001 1.000000e+001
      endloop
   endfacet
   facet normal 0.000000e+000 0.000000e+000 1.000000e+000
      outer loop
         vertex 5.985000e+001 -7.500000e-001 1.000000e+001
         vertex 6.315000e+001 -7.500000e-001 1.000000e+001
         vertex 6.315000e+001 7.500000e-001 1.000000e+001
      endloop
   endfacet
   facet normal 0.000000e+000 0.000000e+000 1.000000e+000
      outer loop
         vertex 5.985000e+001 -7.500000e-001 1.000000e+001
         vertex 6.315000e+001 7.500000e-001 1.000000e+001
         vertex 5.985000e+001 7.500000e-001 1.000000e+001
      endloop
   endfacet
   facet normal -1.000000e+000 1.224647e-016 0.000000e+000
      outer loop
         vertex 5.985000e+001 7.500000e-001 1.000000e+001
         vertex 5.985000e+001 7.500000e-001 -6.611761e-017
         vertex 5.985000e+001 -7.500000e-001 -2.019336e-017
      endloop
   endfacet
   facet normal -1.000000e+000 1.224647e-016 0.000000e+000
      outer loop
         vertex 5.985000e+001 7.500000e-001 1.000000e+001
         vertex 5.985000e+001 -7.500000e-001 -2.019336e-017
         vertex 5.985000e+001 -7.500000e-001 1.000000e+001
      endloop
   endfacet
   facet normal -1.836970e-016 -1.000000e+000 0.000000e+000
      outer loop
         vertex 5.985000e+001 -7.500000e-001 1.000000e+001
         vertex 5.985000e+001 -7.500000e-001 -2.019336e-017
         vertex 6.315000e+001 -7.500000e-001 2.238983e-017
      endloop
   endfacet
   facet normal -1.836970e-016 -1.000000e+000 0.000000e+000
      outer loop
         vertex 5.985000e+001 -7.500000e-001 1.000000e+001
         vertex 6.315000e+001 -7.500000e-001 2.238983e-017
         vertex 6.315000e+001 -7.500000e-001 1.000000e+001
      endloop
   endfacet
   facet normal 1.000000e+000 -6.125742e-017 0.000000e+000
      outer loop
         vertex 6.315000e+001 -7.500000e-001 1.000000e+001
         vertex 6.315000e+001 -7.500000e-001 9.882500e-016
         vertex 6.315000e+001 7.500000e-001 3.600517e-016
      endloop
   endfacet
   facet normal 1.000000e+000 -6.125742e-017 0.000000e+000
      outer loop
         vertex 6.315000e+001 -7.500000e-001 1.000000e+001
         vertex 6.315000e+001 7.500000e-001 3.600517e-016
         vertex 6.315000e+001 7.500000e-001 1.000000e+001
      endloop
   endfacet
   facet normal 6.123234e-017 1.000000e+000 0.000000e+000
      outer loop
         vertex 6.315000e+001 7.500000e-001 1.000000e+001
         vertex 6.315000e+001 7.500000e-001 3.600517e-016
         vertex 5.985000e+001 7.500000e-001 -7.149052e-031
      endloop
   endfacet
   facet normal 6.123234e-017 1.000000e+000 0.000000e+000
      outer loop
         vertex 6.315000e+001 7.500000e-001 1.000000e+001
         vertex 5.985000e+001 7.500000e-001 -7.149052e-031
         vertex 5.985000e+001 7.500000e-001 1.000000e+001
      endloop
   endfacet
   facet normal 0.000000e+000 0.000000e+000 1.000000e+000
      outer loop
         vertex 6.497500e+001 -7.500000e-001 1.000000e+001
         vertex 6.827500e+001 -7.500000e-001 1.000000e+001
         vertex 6.827500e+001 7.500000e-001 1.000000e+001
      endloop
   endfacet
   facet normal 0.000000e+000 0.000000e+000 1.000000e+000
      outer loop
         vertex 6.497500e+001 -7.500000e-001 1.000000e+001
         vertex 6.827500e+001 7.500000e-001 1.000000e+001
         vertex 6.497500e+001 7.500000e-001 1.000000e+001
      endloop
   endfacet
   facet normal -1.000000e+000 1.224647e-016 0.000000e+000
      outer loop
         vertex 6.497500e+001 7.500000e-001 1.000000e+001
         vertex 6.497500e+001 7.500000e-001 -3.799334e-016
         vertex 6.497500e+001 -7.500000e-001 -3.340091e-016
      endloop
   endfacet
   facet normal -1.000000e+000 1.224647e-016 0.000000e+000
      outer loop
         vertex 6.497500e+001 7.500000e-001 1.000000e+001
         vertex 6.497500e+001 -7.500000e-001 -3.340091e-016
         vertex 6.497500e+001 -7.500000e-001 1.000000e+001
      endloop
   endfacet
   facet normal -1.836970e-016 -1.000000e+000 0.000000e+000
      outer loop
         vertex 6.497500e+001 -7.500000e-001 1.000000e+001
         vertex 6.497500e+001 -7.500000e-001 -3.340091e-016
         vertex 6.827500e+001 -7.500000e-001 1.701646e-017
      endloop
   endfacet
   facet normal -1.836970e-016 -1.000000e+000 0.000000e+000
      outer loop
         vertex 6.497500e+001 -7.500000e-001 1.000000e+001
         vertex 6.827500e+001 -7.500000e-001 1.701646e-017
         vertex 6.827500e+001 -7.500000e-001 1.000000e+001
      endloop
   endfacet
   facet normal 1.000000e+000 -6.125742e-017 0.000000e+000
      outer loop
         vertex 6.827500e+001 -7.500000e-001 1.000000e+001
         vertex 6.827500e+001 -7.500000e-001 1.929697e-015
         vertex 6.827500e+001 7.500000e-001 6.738674e-016
      endloop
   endfacet
   facet normal 1.000000e+000 -6.125742e-017 0.000000e+000
      outer loop
         vertex 6.827500e+001 -7.500000e-001 1.000000e+001
         vertex 6.827500e+001 7.500000e-001 6.738674e-016
         vertex 6.827500e+001 7.500000e-001 1.000000e+001
      endloop
   endfacet
   facet normal 6.123234e-017 1.000000e+000 0.000000e+000
      outer loop
         vertex 6.827500e+001 7.500000e-001 1.000000e+001
         vertex 6.827500e+001 7.500000e-001 6.738674e-016
         vertex 6.497500e+001 7.500000e-001 -7.149052e-031
      endloop
   endfacet
   facet normal 6.123234e-017 1.000000e+000 0.000000e+000
      outer loop
         vertex 6.827500e+001 7.500000e-001 1.000000e+001
         vertex 6.497500e+001 7.500000e-001 -7.149052e-031
         vertex 6.497500e+001 7.500000e-001 1.000000e+001
      endloop
   endfacet
   facet normal 0.000000e+000 0.000000e+000 1.000000e+000
      outer loop
         vertex 7.010000e+001 -7.500000e-001 1.000000e+001
         vertex 7.340000e+001 -7.500000e-001 1.000000e+001
         vertex 7.340000e+001 7.500000e-001 1.000000e+001
      endloop
   endfacet
   facet normal 0.000000e+000 0.000000e+000 1.000000e+000
      outer loop
         vertex 7.010000e+001 -7.500000e-001 1.000000e+001
         vertex 7.340000e+001 7.500000e-001 1.000000e+001
         vertex 7.010000e+001 7.500000e-001 1.000000e+001
      endloop
   endfacet
   facet normal -1.000000e+000 1.224647e-016 0.000000e+000
      outer loop
         vertex 7.010000e+001 7.500000e-001 1.000000e+001
         vertex 7.010000e+001 7.500000e-001 -6.937491e-016
         vertex 7.010000e+001 -7.500000e-001 -6.478248e-016
      endloop
   endfacet
   facet normal -1.000000e+000 1.224647e-016 0.000000e+000
      outer loop
         vertex 7.010000e+001 7.500000e-001 1.000000e+001
         vertex 7.010000e+001 -7.500000e-001 -6.478248e-016
         vertex 7.010000e+001 -7.500000e-001 1.000000e+001
      endloop
   endfacet
   facet normal -1.836970e-016 -1.000000e+000 0.000000e+000
      outer loop
         vertex 7.010000e+001 -7.500000e-001 1.000000e+001
         vertex 7.010000e+001 -7.500000e-001 -6.478248e-016
         vertex 7.340000e+001 -7.500000e-001 1.164308e-017
      endloop
   endfacet
   facet normal -1.836970e-016 -1.000000e+000 0.000000e+000
      outer loop
         vertex 7.010000e+001 -7.500000e-001 1.000000e+001
         vertex 7.340000e+001 -7.500000e-001 1.164308e-017
         vertex 7.340000e+001 -7.500000e-001 1.000000e+001
      endloop
   endfacet
   facet normal 1.000000e+000 -6.125742e-017 0.000000e+000
      outer loop
         vertex 7.340000e+001 -7.500000e-001 1.000000e+001
         vertex 7.340000e+001 -7.500000e-001 -6.815692e-016
         vertex 7.340000e+001 7.500000e-001 -7.886737e-016
      endloop
   endfacet
   facet normal 1.000000e+000 -6.125742e-017 0.000000e+000
      outer loop
         vertex 7.340000e+001 -7.500000e-001 1.000000e+001
         vertex 7.340000e+001 7.500000e-001 -7.886737e-016
         vertex 7.340000e+001 7.500000e-001 1.000000e+001
      endloop
   endfacet
   facet normal 6.123234e-017 1.000000e+000 0.000000e+000
      outer loop
         vertex 7.340000e+001 7.500000e-001 1.000000e+001
         vertex 7.340000e+001 7.500000e-001 -7.886737e-016
         vertex 7.010000e+001 7.500000e-001 -7.149052e-031
      endloop
   endfacet
   facet normal 6.123234e-017 1.000000e+000 0.000000e+000
      outer loop
         vertex 7.340000e+001 7.500000e-001 1.000000e+001
         vertex 7.010000e+001 7.500000e-001 -7.149052e-031
         vertex 7.010000e+001 7.500000e-001 1.000000e+001
      endloop
   endfacet
   facet normal 0.000000e+000 0.000000e+000 1.000000e+000
      outer loop
         vertex 7.522500e+001 -7.500000e-001 1.000000e+001
         vertex 7.852500e+001 -7.500000e-001 1.000000e+001
         vertex 7.852500e+001 7.500000e-001 1.000000e+001
      endloop
   endfacet
   facet normal 0.000000e+000 0.000000e+000 1.000000e+000
      outer loop
         vertex 7.522500e+001 -7.500000e-001 1.000000e+001
         vertex 7.852500e+001 7.500000e-001 1.000000e+001
         vertex 7.522500e+001 7.500000e-001 1.000000e+001
      endloop
   endfacet
   facet normal -1.000000e+000 1.224647e-016 0.000000e+000
      outer loop
         vertex 7.522500e+001 7.500000e-001 1.000000e+001
         vertex 7.522500e+001 7.500000e-001 7.687920e-016
         vertex 7.522500e+001 -7.500000e-001 8.147163e-016
      endloop
   endfacet
   facet normal -1.000000e+000 1.224647e-016 0.000000e+000
      outer loop
         vertex 7.522500e+001 7.500000e-001 1.000000e+001
         vertex 7.522500e+001 -7.500000e-001 8.147163e-016
         vertex 7.522500e+001 -7.500000e-001 1.000000e+001
      endloop
   endfacet
   facet normal -1.836970e-016 -1.000000e+000 0.000000e+000
      outer loop
         vertex 7.522500e+001 -7.500000e-001 1.000000e+001
         vertex 7.522500e+001 -7.500000e-001 8.147163e-016
         vertex 7.852500e+001 -7.500000e-001 6.269702e-018
      endloop
   endfacet
   facet normal -1.836970e-016 -1.000000e+000 0.000000e+000
      outer loop
         vertex 7.522500e+001 -7.500000e-001 1.000000e+001
         vertex 7.852500e+001 -7.500000e-001 6.269702e-018
         vertex 7.852500e+001 -7.500000e-001 1.000000e+001
      endloop
   endfacet
   facet normal 1.000000e+000 -6.125742e-017 0.000000e+000
      outer loop
         vertex 7.852500e+001 -7.500000e-001 1.000000e+001
         vertex 7.852500e+001 -7.500000e-001 2.598780e-016
         vertex 7.852500e+001 7.500000e-001 -4.748580e-016
      endloop
   endfacet
   facet normal 1.000000e+000 -6.125742e-017 0.000000e+000
      outer loop
         vertex 7.852500e+001 -7.500000e-001 1.000000e+001
         vertex 7.852500e+001 7.500000e-001 -4.748580e-016
         vertex 7.852500e+001 7.500000e-001 1.000000e+001
      endloop
   endfacet
   facet normal 6.123234e-017 1.000000e+000 0.000000e+000
      outer loop
         vertex 7.852500e+001 7.500000e-001 1.000000e+001
         vertex 7.852500e+001 7.500000e-001 -4.748580e-016
         vertex 7.522500e+001 7.500000e-001 -7.149052e-031
      endloop
   endfacet
   facet normal 6.123234e-017 1.000000e+000 0.000000e+000
      outer loop
         vertex 7.852500e+001 7.500000e-001 1.000000e+001
         vertex 7.522500e+001 7.500000e-001 -7.149052e-031
         vertex 7.522500e+001 7.500000e-001 1.000000e+001
      endloop
   endfacet
   facet normal 0.000000e+000 0.000000e+000 1.000000e+000
      outer loop
         vertex 8.035000e+001 -7.500000e-001 1.000000e+001
         vertex 8.365000e+001 -7.500000e-001 1.000000e+001
         vertex 8.365000e+001 7.500000e-001 1.000000e+001
      endloop
   endfacet
   facet normal 0.000000e+000 0.000000e+000 1.000000e+000
      outer loop
         vertex 8.035000e+001 -7.500000e-001 1.000000e+001
         vertex 8.365000e+001 7.500000e-001 1.000000e+001
         vertex 8.035000e+001 7.500000e-001 1.000000e+001
      endloop
   endfacet
   facet normal -1.000000e+000 1.224647e-016 0.000000e+000
      outer loop
         vertex 8.035000e+001 7.500000e-001 1.000000e+001
         vertex 8.035000e+001 7.500000e-001 4.549763e-016
         vertex 8.035000e+001 -7.500000e-001 5.009005e-016
      endloop
   endfacet
   facet normal -1.000000e+000 1.224647e-016 0.000000e+000
      outer loop
         vertex 8.035000e+001 7.500000e-001 1.000000e+001
         vertex 8.035000e+001 -7.500000e-001 5.009005e-016
         vertex 8.035000e+001 -7.500000e-001 1.000000e+001
      endloop
   endfacet
   facet normal -1.836970e-016 -1.000000e+000 0.000000e+000
      outer loop
         vertex 8.035000e+001 -7.500000e-001 1.000000e+001
         vertex 8.035000e+001 -7.500000e-001 5.009005e-016
         vertex 8.365000e+001 -7.500000e-001 8.963246e-019
      endloop
   endfacet
   facet normal -1.836970e-016 -1.000000e+000 0.000000e+000
      outer loop
         vertex 8.035000e+001 -7.500000e-001 1.000000e+001
         vertex 8.365000e+001 -7.500000e-001 8.963246e-019
         vertex 8.365000e+001 -7.500000e-001 1.000000e+001
      endloop
   endfacet
   facet normal 1.000000e+000 -6.125742e-017 0.000000e+000
      outer loop
         vertex 8.365000e+001 -7.500000e-001 1.000000e+001
         vertex 8.365000e+001 -7.500000e-001 -2.351388e-015
         vertex 8.365000e+001 7.500000e-001 -1.610422e-016
      endloop
   endfacet
   facet normal 1.000000e+000 -6.125742e-017 0.000000e+000
      outer loop
         vertex 8.365000e+001 -7.500000e-001 1.000000e+001
         vertex 8.365000e+001 7.500000e-001 -1.610422e-016
         vertex 8.365000e+001 7.500000e-001 1.000000e+001
      endloop
   endfacet
   facet normal 6.123234e-017 1.000000e+000 0.000000e+000
      outer loop
         vertex 8.365000e+001 7.500000e-001 1.000000e+001
         vertex 8.365000e+001 7.500000e-001 -1.610422e-016
         vertex 8.035000e+001 7.500000e-001 -7.149052e-031
      endloop
   endfacet
   facet normal 6.123234e-017 1.000000e+000 0.000000e+000
      outer loop
         vertex 8.365000e+001 7.500000e-001 1.000000e+001
         vertex 8.035000e+001 7.500000e-001 -7.149052e-031
         vertex 8.035000e+001 7.500000e-001 1.000000e+001
      endloop
   endfacet
endsolid
